/* XPM */
static char *rose4[] = {
/* columns rows colors chars-per-pixel */
"64 49 38 1 ",
"  c #ED56A3",
". c #E65EA7",
"X c #ED5DA6",
"o c #EE5EA9",
"O c #F156A4",
"+ c #F05BA6",
"@ c #F356AB",
"# c #F15DAA",
"$ c #EF5FB0",
"% c #F25EB1",
"& c #E766A6",
"* c #EC63A6",
"= c #EB6AA6",
"- c #E766AE",
"; c #ED64AB",
": c #E76AA9",
"> c #ED6AAD",
", c #F062A7",
"< c #F163AC",
"1 c #F06AAE",
"2 c #EC72AE",
"3 c #F072AF",
"4 c #EE65B1",
"5 c #E768B0",
"6 c #ED6CB2",
"7 c #EF64B8",
"8 c #EE6CB9",
"9 c #F165B2",
"0 c #F16AB2",
"q c #F165B9",
"w c #F16CB9",
"e c #E775B4",
"r c #ED72B3",
"t c #EC7AB3",
"y c #EC72B9",
"u c #EB7ABE",
"i c #F074B5",
"p c #F071BA",
/* pixels */
"q87yuwqw86w<00<644<<$90;;;<<###=3+<,<><>X:;;X>5444;-y864$48-5e58",
"w488wqqqqi9w009##0%<<#<>o;<;>1<1><*11<,1 >>;ooo-;--8y84$$55$5565",
"q8888q%99w9990<00#006#<r;+6<>o>1<,#<,;,+X&>>-o;;Xo-86646$5$.$55e",
"%qy77q%94q99#10<#O;40<<0;<1<#O+<,##<;>>;o*;;4oo554;0q4;54..-44;-",
"8y8qyww99990o>0<#o;;<<90#91>,,O11*X1#X;,XX;>oXo;64o#%o44.o;664o5",
"68800wiw99<146#o;;<;00<99<1><0#<1*<;+;;X;<>; oX66;-0rq44;;X54o>:",
"488w099@999%9;o<<o6<1i<<#11<<<,#+,+>2;;,0;oXo4;;65-660#;;oO;<>;>",
"48qww990<99999<#;###<<0#<<1+,##<,+;;>><>;#oo;;;<r;;<;<#oooo9;5o:",
"qw99w09<990<<<<<o;#00<<<<6;#<><<0;o##;,;,O<>6;#;4;4;O<oo;o<;;;X@",
"0090000<<0i<0####;r#6<##0<0<11<#0,>0<#<o#o>;,;#;<4#Oo#;#<5;:;:. ",
"w0iw0w0%<009###+o4o0#@<>#<##,<#9#<1<4<#++#;,4<>;;#4Oo6##r:#;o;. ",
"w099%99%9<<01#<##o400#42<<9<#<###1#,<#,#+O;<<;,,#9#o#;<<>##;o-;-",
"9q0099p9%%<9<#<0##49<<r;000<<##1,<<<<<#XO#O,<+;,#<<;ooo<;#;4>;;o",
"908<9909#<%0<<<<<00;<#<6,#<10<##,<<<<<+Xo#X<;X;##o#;>,Ooo;;;:;;o",
"86<090099<<<00<1;<0<9<<<<<<<<<,+O<<>1##o;;,>;+,<#;o;<6oo;6-o;>.>",
"06;w0099i<;#6;#0<,610<><,<##<<#;00<<<O,,>t<<;10>;oX;;4-;;o4;;:;>",
"y<609q0r6<i+>,0<<<r111;;<#0w0<#+,9;<###;1;,;<<<o;X oo;o4;;;;;t-;",
"0900%i01i<1<;<6<;609o6r09#0<<1#<#;<oX ;;1>;*;;o<6#X;0<6;4;;;;;oo",
"4$%%<000i<#166>;<90;<rt,<<<#<9#<>;<,+ #;<;;,o<>4;:o84<;66#>-66->",
"9@@w0<0w0900;04r>o9<<<096r00<#+#>;6<,#;<<<;,>;0;;8>;o9->;-;r>>5e",
"9%%%00#900<##<<06@0#,;0<rt,0<;0>>;r*;<o#>;;>;;<;o6e,<;;>6656:;5-",
"909#6><09###;<0%9#0#9><o08#<#<<;;;;##,#;;;oX#6rr#0<X4;>;;o4;;;>o",
"6040>;06<9##9;6<4;0;<>;<<#1<;;#;;02<<><,<XX;#,<;<0;*;6>-4o4$$;;5",
"006<>004<0%66##0<;#>,#>;;#<;<<<2;,>>;><>1**;4<;;<;;;8o;>>->-o455",
"696y0w1<09<06;<;<<#0,<,;>1,;X1;r;;1><<>;<X+<>;o;#>;;>;o::;6;-o45",
"#;06#91<0<0<#<<oo#<<<<<;;;#o+1<0;;1;*<<X1*;;<,#X#>;;<6;o-;;o*-54",
"#>r00<#<0<01>;<,<<0<##1<#,#+;,1*><,;o>,o;X#;;;;#,;Xo;6>>o;;->665",
"9;w<<<6q900<>>1>;#<;*+>1#*#;;,1<;##<*,;o>;<;;;>>;Xo>>>>;o;o.:5;o",
"4<w6<<0##0<<>,>1>+1;;<<<,<;,;1t<1#O*X<##>>#,,1*X#;X;>#;;;4-&45;4",
"90<><<;#<###><<<o,16>t<+>>,#,1>,<+,;#,;,6<+,<>++##;O;,;o;;:;>;--",
"16#>6;;<03<<+<1+;;+<rt;+>;o<>*<<OXX<#+;,,,,X#>*;;o#<,;;;6-X;;;o;",
"#0;#<;6<10<3<<i1##+,1<XXX,#<<*<* X*<XX,##++O;;o>>X<><;&:>;;:-;-;",
"0<<##,<#<31<<<<#*1>,>,X;,#,<<1+#+,,#*;+,+;#+;<#X;;o1**X;>;*:;>:6",
"9<9<##<<11+<<<<,,<>X,*,,1<,<1*1<,**,+>,<,*X;,,*;++>>&*&:>>.o46:&",
"9#11<<,#<3*1<<>>X+<;1<<<,,+*,++<+**X+<,#2,+,#,#X,>;1>.*X&X;;;>>o",
"<906<<,#<<<,1;,,,*,11;,1>,<;#,,<>1+O*<,+;+o#0;*#,;><&*;::XX>-.- ",
"<<0i<1,#,<<#<11*#><,;>+,<<##;,++,,,+;,#X+X,,,X*>;;;;>>:X Xo;o;>;",
"9#<1<<##,+,#13=>>;<>,1,,,#>>;<#+1,***+++*O,;,XX,+<:X:*-;X;:r>;>*",
"<<<<3=,<<+<>02>2;1<<,211++11,1<<2*+O++X#>X#+# O,;>*2&*;>:&-;>::;",
"ii0<1*#,;,<2>2>;X>1,1X,<<++,,,*1*O**,,+<*O#+*>*>=*,2;X:>&-Xo-o;;",
"itr2<<<<1<<>;><,++,<,O<*>*,>=1=,*,#,>=+<1X**>1>>>;;:X;:&XoX -5;o",
"i>6>,<0<1>>1,>>>>O,,;#<,X;1<,,;+++,,=*++,;+>X;<=*:;X*>o .&;;6:>>",
">0>6111#<>>;;;,1*+><>,;;o+,,*=,;+#<>+,*O,X =*+1*X**XX>& o;;X:;:-",
"1>;#<1<,>>>XXX;><X;;<,,>+#,#,*;<XO+,+,+>>X+,*1<>oXX =;>>X&:Xoo-o",
"1:;;<1;>;;&X>>X##;;*;+;,*,**1>+*O*<<,*,=XX,,*,<*;*>*&;&;;:X&;-:;",
">>;>6>1<o;;*=>X+;X>>>,#**X;<;o#>;+o,>,**X=***+*> X:=***XXX::>:X:",
";>X;>;>2;X;;*;X;;X,;*<*+;;;*,X;=>,==>XX*X &,*&*>*=*&:X X&..X:::X",
"X>&;;>>=>oX;Xo;X*;*&*>X;>O,X>*=>>*,*,X  **=*X=>**=*;*** *. XXX& ",
";;o@:;X;:;;Xo#*XX****X*>**;*2 X*>*&*XXX&*=&=*X>&X&2>&.&&&*.X &  "
};
