/* XPM */
static char *rose3[] = {
/* columns rows colors chars-per-pixel */
"64 54 160 2 ",
"   c #AB3F6C",
".  c #AD556D",
"X  c #BD4172",
"o  c #B64C71",
"O  c #BB4A77",
"+  c #B65A73",
"@  c #BE5975",
"#  c #B55278",
"$  c #BF517D",
"%  c #B96875",
"&  c #C14273",
"*  c #C34B78",
"=  c #C35076",
"-  c #C35C77",
";  c #C86F7C",
":  c #C37676",
">  c #C4727B",
",  c #BB6E87",
"<  c #D34C84",
"1  c #DC4D86",
"2  c #DF4E88",
"3  c #CF5186",
"4  c #D45287",
"5  c #D95486",
"6  c #D35C85",
"7  c #DA5A87",
"8  c #D55389",
"9  c #DC548B",
"0  c #D45C8B",
"q  c #DC5B8C",
"w  c #DE5791",
"e  c #DC5A90",
"r  c #E24D87",
"t  c #E34E89",
"y  c #EA4F8B",
"u  c #E3548D",
"i  c #EB538D",
"p  c #E45B8C",
"a  c #EB5C8E",
"s  c #E35691",
"d  c #EB5691",
"f  c #E45C93",
"g  c #EB5B93",
"h  c #E75C98",
"j  c #EA5C99",
"k  c #F05D96",
"l  c #F05F98",
"z  c #C66686",
"x  c #D46284",
"c  c #D66E87",
"v  c #DB6D87",
"b  c #D4638D",
"n  c #DC628C",
"m  c #D76B8C",
"M  c #DB6A8A",
"N  c #C6778E",
"B  c #C27A8D",
"V  c #D97287",
"C  c #D9718A",
"Z  c #DF7B8D",
"A  c #D66690",
"S  c #DD6592",
"D  c #D66A92",
"F  c #DB6B94",
"G  c #DA7297",
"H  c #DD759A",
"J  c #DE7C9D",
"K  c #E4638C",
"L  c #EC658E",
"P  c #E36C8D",
"I  c #EB6A8E",
"U  c #E5758C",
"Y  c #E9708E",
"T  c #E27B8D",
"R  c #E46293",
"E  c #EC6493",
"W  c #E46B96",
"Q  c #EE6C91",
"!  c #E66399",
"~  c #EC649C",
"^  c #E56B9A",
"/  c #EC6B9B",
"(  c #F06F93",
")  c #F1649C",
"_  c #F0689A",
"`  c #E77590",
"'  c #EA7491",
"]  c #E47D90",
"[  c #EC7A92",
"{  c #E3739A",
"}  c #ED739D",
"|  c #E47C9E",
" . c #E8799F",
".. c #F17192",
"X. c #F27B94",
"o. c #F1729E",
"O. c #EE6BA1",
"+. c #F167A0",
"@. c #F36CA3",
"#. c #EF74A2",
"$. c #ED7CA2",
"%. c #F571A6",
"&. c #F872A7",
"*. c #F07AA2",
"=. c #F674A9",
"-. c #F976AB",
";. c #FC7AAE",
":. c #FE7CB0",
">. c #C78394",
",. c #C98797",
"<. c #C98997",
"1. c #CB8C9B",
"2. c #E3838F",
"3. c #E48B8C",
"4. c #E88D8F",
"5. c #EB938F",
"6. c #E58491",
"7. c #ED8493",
"8. c #E68A92",
"9. c #EB8C93",
"0. c #E1819E",
"q. c #F18495",
"w. c #F18C95",
"e. c #F58B98",
"r. c #EC9591",
"t. c #EE9993",
"y. c #E9919A",
"u. c #F19497",
"i. c #F19D95",
"p. c #F69499",
"a. c #F8969B",
"s. c #F49C99",
"d. c #F99B9B",
"f. c #F3A197",
"g. c #F6A49A",
"h. c #F9A59C",
"j. c #FBAA9E",
"k. c #DF81A0",
"l. c #E384A2",
"z. c #EE83A6",
"x. c #E68BA6",
"c. c #E98EA7",
"v. c #E68CA8",
"b. c #EB8CA9",
"n. c #F183A7",
"m. c #F186A8",
"M. c #F28CAB",
"N. c #E790AA",
"B. c #EB93AB",
"V. c #EE99AF",
"C. c #F292AE",
"Z. c #EE9BB1",
"A. c #F495B0",
"S. c #F29DB3",
"D. c #FEACA0",
"F. c #F3A3B6",
"G. c #F5A6B9",
"H. c #F9A5B9",
"J. c #F6A9BB",
"K. c #F9ACBD",
/* pixels */
"  2 [ f.j.g.j.g.f.u.u a S.K.J.J.J.G.l.h @.=.-.-.%.O.) g i 2 8 j j d +.;.-.;.-.-.;.:.-.h 2 j -.-.;.%.%.%.=.=.%.:.:.;.;.:.;.-.g 7.",
"& X.f.i.h.h.j.j.g.f.I E S.K.K.K.J.| f &.-.=.%.%.%.=.=.&.) i < 9 j j j %.-.;.-.;.:.:.O.u i s %.;.=.%.+.~ +.j +.%.;.:.:.;.:.=.E y.",
"- s.g.i.g.j.j.j.j.j.Q p Z.K.K.K.z.f %.:.;.=.-.-.O.@.=.%.-.&.~ < < w j j ;.;.;.;.;.^ u y y 1 ~ :.:.;.;.=.%.O.j j %.:.:.:.;.-.E u.",
": i.r.f.g.h.j.j.h.9.i u A k.v.F s @.:.:.;.;.-.;.@.O.%.;.-.;.;.@.s < 8 s @.:.;.;.! p #.n./ t 4 @.-.:.:.:.:.:.=.+.+.%.:.;.:.-.L i.",
": t.r.5.i.j.j.j.g.L g &.O.q 2 t @.:.-.%.=.;.;.-.=.%.%.=.;.;.;.;.;.) 9 < 9 h O.w / A.G.K.H.n.q 8 %.;.:.:.:.;.:.=.=.&.;.;.;.;.f r.",
". t.g.t.5.i.f.f.' i -.;.;.-.) i O.-.-.-.%.%.=.-.=.@.@.@.-.;.;.;.;.;.%.d 1 < 8 $.F.K.K.K.K.K.S.F 8 +.-.;.;.:.-.=.;.;.;.:.:.;.g x ",
"o T j.f.t.5.i.2.u @.;.-.-.;.;.h 9 O.-.;.%.=.;.;.;.%.O.~ +.;.-.:.;.;.=.a y ) C.J.K.K.K.K.K.K.K.J.H 4 +.;.:.:.:.;.;.;.;.;.:.;.) r ",
"; U j.h.f.f.4.p ) ;.;.;.;.;.;.=.e < e @.=.;.=.=.:.;.-.&.@.%.=.;.;.=.h i %.S.K.J.K.K.K.K.K.K.K.K.J.^ 3 O.-.-.:.;.;.;.;.;.;.:._ i ",
"@ I j.j.j.g.K d &.-.;.;.;.;.;.-.-.g 1 < q +.-.=.;.:.;.;.;.=.=.=.;./ d n.G.K.K.K.J.K.J.K.J.J.K.K.K.H.$.8 ^ -.;.:.%.=.-.:.:.-.~ ) ",
"& K h.j.j.[ i @.;.;.;.;.;.;.;.;.-.g ( [ n < q O.;.;.:.;.;.;.=.;.O.f z.J.K.J.J.K.K.K.K.K.K.G.J.K.K.K.J.z.8 0 O.%.%.&.;.:.-.~ i +.",
"& K t.g.9.i j ;.;.;.;.;.:.;.;.;.! E h.j.j.7.q < w +.;.;.;.-.=.~ u ^ B.G.K.K.J.K.K.K.K.K.K.G.G.G.J.K.K.K.A.f < f %.;.;.-.O.2 i O.",
"& p 4.4.K i +.=.-.;.;.;.;.:.;./ p p.h.j.D.D.h.q.M 8 ! -.;.;.&.u y F B.Z.K.J.J.K.K.K.K.K.K.K.J.G.G.J.K.K.K.F.E < 8 ! O.! 9 y s O.",
"= Y V 7 d +.-.;.;.;.:.;.;.;.=.u q.D.j.h.j.D.D.D.h.9.0 S -.-.! h g 8 J B.F.K.K.J.J.K.J.K.K.K.K.K.J.K.K.K.K.K.M.y 1 < 0 e g y s %.",
"> j.w.i ) :.:.:.:.:.;.;.;.;.g ( h.j.j.j.j.D.j.j.D.D.s.q 9 R / F.A.E 6 J F.F.J.K.K.K.K.K.K.K.K.K.K.K.K.G.B.J ^ / m.A.S.S.S./ f @.",
"% g.i.g -.:.;.:.:.;.;.:.;.%.i e.j.j.D.D.D.D.D.D.D.D.D.e.5 p S.J.K.G.$.8 J B.B.F.K.K.J.K.K.K.K.K.K.J.l.F H b.S.J.K.K.J.F.F.*.s &.",
"+ s.f.P / ;.:.;.;.;.;.;.-.g E h.D.j.D.j.D.j.D.D.D.D.j.7.g C.J.F.J.K.K.M.0 k.c.B.F.K.G.G.K.K.K.K.V.F { S.K.K.K.K.K.K.K.G.G.z.s -.",
"@ j.j.[ 4 ! -.;.;.=.;.-.! i q.j.j.j.D.D.D.D.D.D.j.j.9.p M.K.G.F.F.J.K.K.b.b 0.c.N.F.G.F.K.K.G.l.9 ^ B.G.G.K.K.K.K.K.K.J.J.M.p =.",
"o 8.y.z.^ q 8 ^ -.=.O.f t E h.j.j.D.D.j.t.s.D.D.j.9.q  .F.K.J.G.Z.Z.G.J.J.z.b 0.B.F.G.Z.Z.B.A t y { v.B.Z.F.F.F.K.K.K.K.K.C.u %.",
"X S Z.J.F.A.$.0 q e 8 r y [ j.j.D.D.g.M q 0 C 8.T R z.F.F.F.J.G.F.Z.Z.J.J.K.z.0 x.V.G.F.H q a ..Q 0 l.B.Z.G.G.F.F.J.J.G.F.C.u O.",
"z H.K.K.F.F.K.G.B.x.} i i 7.j.D.D.g.P } S.F.v.^  .S.J.V.V.F.G.G.S.F.Z.J.K.K.K.z.6 G J F K q.d.j.j.` b v.Z.F.F.F.S.S.B.b.B.$.s O.",
"1.G.J.K.J.G.J.K.K.G.G.} y U D.D.g.P z.J.K.K.K.K.K.K.K.F.Z.V.G.J.F.B.V.F.K.G.K.H.R r 2 I g.j.j.j.j.i.T M m m m m M b b 0 0 u ~ @.",
"1.S.G.J.J.K.J.J.K.K.K.C.d q g.s.P $.J.J.K.G.V.S.J.J.K.K.J.G.G.K.K.F.N.V.F.F.J.K./ y I i.D.j.j.f.t.t.i.i.s.h.h.h.d.h.s.q.i g j ~ ",
"1.F.F.J.K.K.K.K.K.K.K.G./ u x M z.J.J.G.J.F.B.V.F.F.K.K.K.J.S.G.K.G.V.N.F.G.K.B.d y v h.D.D.j.D.j.j.f.t.r.i.j.j.j.j.j.h.E +.~ j ",
"1.J.G.K.J.K.K.K.K.K.K.K.o.y g C.K.K.J.G.G.V.B.Z.G.J.J.K.K.K.G.F.G.G.G.G.J.K.V.g i i 7 r.D.D.D.D.D.D.D.j.g.t.t.f.g.j.D.h.E @.%.@.",
"1.K.F.J.J.J.J.J.K.K.J.S.g i M.K.K.K.K.S.Z.F.F.F.G.G.G.K.K.K.K.K.Z.F.J.K.K.V.S d +.-.! v h.j.D.D.D.D.D.D.j.g.f.f.j.j.D.d.u +.=.%.",
"1.K.J.J.J.J.J.J.J.K.K.A.i a A.K.K.K.K.F.Z.G.G.F.S.G.J.K.K.K.K.K.J.K.K.J.x.p j &.:.;.-.q r.j.j.D.D.D.D.D.j.j.j.j.D.D.D.h.p 9 h f ",
"1.K.K.J.J.K.K.H.K.K.K.J./ t D V.K.K.J.G.J.K.J.F.V.B.F.G.J.K.K.K.K.K.F.H u ) -.:.:.;.:.O.M h.j.D.D.D.j.D.D.j.j.D.j.D.D.j.E 1 < < ",
"1.K.J.G.J.K.K.K.K.K.K.K.C.a r 5 J F.J.J.G.J.K.K.G.F.F.F.G.K.K.K.G.x.0 a @.;.;.;.;.;.;.:.h Z j.D.D.j.j.j.D.D.D.D.D.D.D.j.Q y l &.",
"1.K.K.K.K.K.K.K.K.K.K.K.K.m.i y 1 6 l.G.J.G.K.K.K.J.G.G.G.G.K.S.F u ) -.;.-.;.;.;.:.-.=.@.4 6.D.D.j.j.j.j.j.g.j.j.D.j.h.E ) ;.;.",
"1.K.K.K.K.K.K.K.K.K.K.K.K.H.k y g h 8 b x.G.K.K.K.K.K.K.G.J.A.S g &.;.;.-.;.;.;.;.:.-.O.R ~ 0 6.j.D.g.f.g.g.g.g.j.j.j.w.d @.=.;.",
"1.K.K.K.K.K.K.K.K.K.K.K.K.K.) d @.;.-.! 6 A c.F.K.K.J.J.J.V.S i ) ;.;.-.-.;.;.;.:.#.q W C.J.A.S x Z 2.3.5.t.j.j.D.D.t.K i O.&.=.",
"1.K.K.K.K.K.K.K.K.K.K.K.K.S.g @.-.;.;.;.&.! 0 G F.J.K.J.F.F i 9 ~ =.;.;.-.;.;.;./ 9 $.G.G.F.F.F.b.{ n 6 6 x V 2.9.2.n t s %.;.=.",
"B K.K.G.G.K.K.K.K.K.K.K.K.$.l ;.-.%.;.:.;.;.%.e b v.K.J.l.E #.9 9 @.=.:.;.-.;.:.g o.K.K.K.K.K.J.K.K.K.S.C.z. .H H W a i s &.;.;.",
"B G.K.K.K.K.K.K.K.K.J.K.A.g &.;.;.;.;.;.;.;.;.-.~ 0 G H ~ S.K.B.0 w %.%.-.;.;.=.@.{ K.K.K.K.K.K.K.K.K.K.K.K.K.J.G.G.C.E f @.%.;.",
"B F.K.K.K.K.K.K.K.K.K.K. ./ -.-.;.;.;.;.;.;.;.;.;.@.t s A.K.K.K.A.e e j O.=.=.:.&.q F.K.K.J.K.K.G.F.H.K.K.J.K.K.K.V.G.$.f %.@.@.",
">.G.K.K.K.K.K.K.K.K.K.B.g &.;.;.;.;.;.;.;.:.;.;.;.&.a M.J.F.J.J.K.S.A 9 h +.%.%.h } J.J.K.K.G.V.V.G.K.K.K.K.J.K.K.G.F.z.s ;.=.O.",
"B V.F.K.K.K.J.G.K.K.K./ ~ -.-.;.;.;.;.;.;.:.:.;.;.) o.J.G.F.F.F.K.K.S.e 8 h w 9 } A.G.Z.V.V.c.c.B.J.J.K.K.K.K.K.K.G.K.z.s =.;.;.",
">.V.V.S.K.J.J.J.K.K.C.d &.;.;.;.;.;.;.;.;.:.;.:.&.! V.K.J.G.Z.Z.J.K.K.A.e < 9 z.G.Z.V.B.c.c.B.B.B.V.F.G.G.J.J.K.K.K.K.m.s =.;.;.",
"<.S.V.V.S.G.K.K.K.K./ E -.;.;.;.;.:.m.:.;.;.;.;.g  .G.G.J.G.F.V.F.G.K.K.F.} R B.J.F.c.J A b A J c.V.F.F.F.F.V.V.F.G.G.m.s @.;.=.",
"1.K.K.G.G.S.S.K.K.H.g +.;.;.;.;.:.:.:.:.;.-.#.s i  .G.G.J.F.F.F.Z.G.K.K.K.K.{ D B.l.b n Q [ P 8 b B.F.Z.F.F.V.B.N.B.B.$.s O.;.;.",
"<.K.K.K.K.K.J.K.K.K.E ! :.;.;.;.;.:.;.;.=.q 9 i i 0 v.F.J.J.F.V.Z.G.J.J.K.K.A.2 8 q q.h.D.D.j.p.n 0 l.B.c.c.B.b.x.0.F u h @.;.;.",
"B K.K.K.K.K.K.K.K.K.z.q -.:.;.;.;.:.;.=.R 7.s.p.q.P D Z.J.K.J.V.v.Z.G.F.J.Z.^ a [ h.D.D.j.D.D.j.s.] 0 H l.c.J A 0 n ~ d 8 ! ~ ) ",
", K.K.K.K.K.K.K.K.K.H.q ! ;.:.:.;.:.-.f X.j.j.j.g.h.6.G V.J.J.G.c.N.F.F.v.q E p.j.D.D.D.D.D.D.j.j.h.7.5 6 0 e O.&.%.%.%.u < < e ",
"% K.K.K.K.K.K.K.K.K.K.*.5 %.:.;.:.-.h g g.j.j.j.g.g.j.Z G F.J.J.V.c.F.c.n [ h.j.g.h.h.D.j.j.D.j.j.j.h.E i g %.%.O.O.@.%.@.g t 2 ",
"# S.K.K.K.K.K.K.K.K.K.F.u R ;.;.;.~ t ' h.j.h.f.g.g.g.g.M l.S.F.F.c.$.M 7.h.t.t.t.t.g.j.j.j.j.D.D.j.j.X.d %.%.-.&.%.=.;.-.&.k y ",
"$ S.K.K.K.K.K.K.K.K.K.M.i 8 %.-.! g ) ' h.g.j.h.g.j.j.j.p.m B.H.F.J M 9.g.j.g.g.g.j.g.j.j.j.j.j.j.j.h.q.d O.+.-.;.;.;.=.;.;.-.g ",
"3 v.K.K.K.K.K.K.K.J.l.f ) d 8 p ! -.-.[ g.g.g.j.j.g.g.j.j.7.0 D b p w.g.g.h.D.j.g.j.j.D.j.g.j.j.h.h.j.X.w +.%.@.%.;.;.-.;.;.;.%.",
"O J K.K.K.K.K.K.Z.F ~ -.;.;.@.@.;.;.=.U g.g.g.j.j.g.g.g.g.h.a r L p.j.j.D.D.D.D.g.h.j.j.j.j.g.j.j.j.j.Y s @.;.=.=.=.-.&.;.;.;.-.",
"X e B.J.K.G.B.H 9 u O.:.:.:.-.:.-.;.&.` h.j.j.j.j.g.g.j.j.t.i L d.D.j.D.D.D.j.j.i.j.j.D.D.D.j.g.g.j.j.I u @.-.-.%.-.-.=.=.;.-.! ",
"* t A v.l.D n P ..u 9 %.:.-.;.=.-.-.@.' j.g.j.j.g.j.g.j.t.p E u.g.j.j.j.D.D.j.g.t.j.j.D.D.D.D.j.g.f.j.L w +.+.%.-.=.-.;.:.;.! q ",
"N E 1 8 7 [ i.g.g.p.n q %.:.:.;.;.;.) U g.g.g.j.j.D.j.r.p a a.D.f.g.j.j.D.D.D.f.f.j.j.j.D.j.D.j.h.g.h.L 9 @.@.~ %.-.-.;.;.~ f p.",
",.o.i E a.h.f.f.i.h.u.v e @.;.;.;.;.E U g.j.j.j.j.g.r.7 a a.j.j.g.f.g.h.D.D.j.f.g.j.j.j.j.g.t.j.j.h.a.a s %.=.%.%.-.;.-./ p e.j.",
"1._ a u.g.h.h.h.g.j.h.g.Z b e ! %.%.f U f.j.D.D.g.V 5 a e.j.D.D.g.f.f.t.h.j.j.h.g.j.g.t.i.g.f.g.g.i.U y u @.;.;.;.;.;.O.p w.h.j.",
"1._ I i.f.g.j.j.j.g.j.j.j.u.q < 3 n y v g.j.j.f.Z u i e.j.D.D.j.g.g.g.g.h.j.j.j.j.j.g.t.t.g.g.3.c 7 d g u @.;.;.;.;.-.f [ g.g.h."
};
