/* XPM */
static char *rose6[] = {
/* columns rows colors chars-per-pixel */
"64 28 219 2 ",
"   c #E25C4C",
".  c #E55B55",
"X  c #E55C5A",
"o  c #E56156",
"O  c #E6635D",
"+  c #E3695F",
"@  c #E85B68",
"#  c #EC5E73",
"$  c #EE5E7A",
"%  c #D66B65",
"&  c #DD6A63",
"*  c #D66D68",
"=  c #DC746C",
"-  c #D86476",
";  c #CB7A7C",
":  c #DE7E77",
">  c #DD7E79",
",  c #E56C63",
"<  c #E8616C",
"1  c #E46D6C",
"2  c #E96C6C",
"3  c #E47165",
"4  c #E3726B",
"5  c #E17A6C",
"6  c #EB6174",
"7  c #EA6E73",
"8  c #EA6978",
"9  c #E57474",
"0  c #EB7075",
"q  c #ED737D",
"w  c #E27978",
"e  c #DC827F",
"r  c #DE779C",
"t  c #E56B85",
"y  c #F16485",
"u  c #F3678C",
"i  c #F36D8F",
"p  c #EF7584",
"a  c #EA7689",
"s  c #E37A8B",
"d  c #EC7A8B",
"f  c #F07683",
"g  c #F07886",
"h  c #F17A8B",
"j  c #EB6993",
"k  c #EB6D99",
"l  c #F06190",
"z  c #F46C93",
"x  c #F66799",
"c  c #F36A9B",
"v  c #E77591",
"b  c #EC7494",
"n  c #E37C93",
"m  c #E3759A",
"M  c #E37A9A",
"N  c #E87899",
"B  c #F07395",
"V  c #F37D93",
"C  c #F6729A",
"Z  c #F47D9B",
"A  c #DB72AF",
"S  c #DD73B1",
"D  c #D77AB5",
"F  c #DC7BB5",
"G  c #D57FBA",
"H  c #DC7FB9",
"J  c #EC6CA7",
"K  c #E56EAA",
"L  c #EA6EA9",
"P  c #F26BA5",
"I  c #F56CA4",
"U  c #EB77A7",
"Y  c #E57EA5",
"T  c #E373AD",
"R  c #EB73AC",
"E  c #E57AA8",
"W  c #F674A4",
"Q  c #F875A5",
"!  c #F47BA1",
"~  c #F97CA5",
"^  c #F575AA",
"/  c #F875AA",
"(  c #F57AAD",
")  c #F97CAD",
"_  c #E176B1",
"`  c #E67BB3",
"'  c #EA79B0",
"]  c #F47DB1",
"[  c #FA7FB1",
"{  c #BB88BD",
"}  c #DE8585",
"|  c #E48985",
" . c #E88E8F",
".. c #E68297",
"X. c #EC8599",
"o. c #F6819C",
"O. c #F8839F",
"+. c #E89497",
"@. c #E3969B",
"#. c #C888A5",
"$. c #D396AE",
"%. c #D483BD",
"&. c #DC82BB",
"*. c #D788BF",
"=. c #DB8BBC",
"-. c #EE84A1",
";. c #EE86AA",
":. c #F684A3",
">. c #F885A5",
",. c #F38AA7",
"<. c #F781A9",
"1. c #FA83AC",
"2. c #F48AAD",
"3. c #FA89AD",
"4. c #E29AA2",
"5. c #EB9BA4",
"6. c #E39CAB",
"7. c #ED9DAA",
"8. c #F192A6",
"9. c #F09DAE",
"0. c #E48FB7",
"q. c #ED8DB3",
"w. c #E388B9",
"e. c #EB8DBD",
"r. c #F582B4",
"t. c #FB84B3",
"y. c #F48BB3",
"u. c #FC8AB5",
"i. c #F38DBB",
"p. c #FD8DB9",
"a. c #ED91BF",
"s. c #F793B6",
"d. c #F990B6",
"f. c #F29CB0",
"g. c #F492BD",
"h. c #FB93BD",
"j. c #F09AB9",
"k. c #FA99BE",
"l. c #DCA1B3",
"z. c #DCAABF",
"x. c #E7A1AA",
"c. c #E3A3B3",
"v. c #EBA3B3",
"b. c #EEA3B9",
"n. c #E8AAB8",
"m. c #F5A1BD",
"M. c #AE98C5",
"N. c #B799C8",
"B. c #B49BCB",
"V. c #BBA5CE",
"C. c #ADA7DD",
"Z. c #B5A6D4",
"A. c #B3A4DC",
"S. c #B9A2DA",
"D. c #A9A7E1",
"F. c #CE8BC5",
"G. c #D287C1",
"H. c #D48BC4",
"J. c #DC8BC1",
"K. c #D18FC9",
"L. c #C49FC0",
"P. c #CD94CC",
"I. c #CD9CCF",
"U. c #DB94C7",
"Y. c #D394C9",
"T. c #DD97C9",
"R. c #D499CD",
"E. c #DA99CA",
"W. c #C49ED4",
"Q. c #CA9CD2",
"!. c #D29ED2",
"~. c #E38EC1",
"^. c #E495C5",
"/. c #EB93C2",
"(. c #EA9BC8",
"). c #F495C1",
"_. c #FB96C0",
"`. c #F59AC4",
"'. c #FA9CC2",
"]. c #C3A0C1",
"[. c #DDABC4",
"{. c #D3ADCD",
"}. c #DBADCE",
"|. c #DDB1CD",
" X c #CEA3D5",
".X c #CAA9DB",
"XX c #CCACDC",
"oX c #D3A3D3",
"OX c #D5ACD5",
"+X c #D8ACD3",
"@X c #D4ABDA",
"#X c #CCB4DC",
"$X c #DAB2D4",
"%X c #D4B2DC",
"&X c #DAB3DA",
"*X c #DEBCDD",
"=X c #E0ACC3",
"-X c #ECA6C9",
";X c #F5A4C2",
":X c #FAA3C5",
">X c #F1AFC3",
",X c #F8A9C7",
"<X c #F3A2CB",
"1X c #FBA3C9",
"2X c #F6AECB",
"3X c #F9ABCB",
"4X c #EFB3C4",
"5X c #F2B1C7",
"6X c #F5B2CD",
"7X c #EBAAD2",
"8X c #F5ACD2",
"9X c #FAAED2",
"0X c #F4B4D4",
"qX c #F9B2D6",
"wX c #F5BCD6",
"eX c #F5BCDA",
"rX c #F9BBDB",
"tX c #C6B1E4",
"yX c #CCB4E1",
/* pixels */
"`.i._._._.:Xd./ Y U ) V O 2 u.W <X<Xt.p.t.t.2.m m ,.d.'.`.g.h.d._.:Xh./ U ;.^ :.+ , >.W ).8Xr.u.u./ 2.N r -.p._.`.).).h.k.'._.u.",
"h.k.p.'.0X0X:X[ I W t.u.O.>.1.~ ( ] [ u 6 # ! y.d.h._.h.h.k.h.'.qX0X,Xu.W P ] u.>.:.3.>./ ] [ C y # C 2.s.d._.h.h._.h.h.2X0X2Xh.",
"o.7 1.:X0XwX3Xd.u.Y.W.W.^.o.o p t.p.u.$ q s # 1.k.! B d.3.9 Z '.6XwX2Xh.t.~.W.W.T.3.O 2 t.u.u.u 1 s < ~ h.,.B y.d.q h h.2XeX0X_.",
"o.9 >.h.:X,Xh.p.p.S.Z.Z. X:.2 d t.t.t.6 s ..# ~ d.- - ! 3.0 Z h.'.3X'.p.p.W.C.V.S.y.7 q t.t.u.y a ..6 C h.t - b h.q p p.'.3X:Xd.",
"p.u.u.p.p.u.q V e.D.L.].C./.3.u.P / p.z 6 6 C u._.N t y.h.p.u.u.p.d.f g y.A.V.$.D.^.u.p./ c p.Q # # z t.h.:.t ,.h.p.u.u.p.p.V q ",
"q.p.I ) u.7 = 1 -.W.A.A.Y.d 1 d 1.u.d.t.1.Q t.) t.h.h.).0.d./ W p.g , = h !.A.D.Q.X.1 q 3.t.p.u.1.W 1.[ ( h.h.g.0.i.[ I u.Z + : ",
"$.i./ ) p.V 4 1 u.p.^.^.t.& ; & 3.k.m._.u.R &.K.&.( u.0.#.e.) ) u.>.2 4 >.d.^.T.u.1 ; % O.h.m.k.p.( &.K.*.' t.g.#.a.[ / u.1.9 4 ",
"r.p.p.t./ ~ ~ >.u.:X6X3Xd.9 * 0 u.m.7.'.u.` #X[.OX%.t.p.i.p.p.t.( ( Q >.u._.9X2Xh.h * 4 >.k.x.m.p.T .X=X}.K.( d.i.p.p.u.( [ ! <.",
"y Q t.r.j.j.( p.p.2Xx.>X'.3.>.;Xh.k.'.h.) G |.= n.Y.t.) y Q r.] j.j.( p.p.3Xv.n.:Xp.>.k.h.h.:Xh.r.S &X> 4. X( t.u z t.[ g.m.r.1.",
". u t.g.@.v.] t.h.1X>X3Xh.p.9XrX1Xu.o.>.t.' oX[.+XG.) c . $ t.r.x.7.y.1.p.'.5X5X_.d.1XwX9Xp.:.o.t.^ I.=X}.H.( / @ @ [ ] b.@.g./ ",
"z ~ u.] `.g.^ u.V o.h.h.p.u.'.9X'.h X o o.) H H.G [ u.[ x Q u.[ i.`./ t.o.h h.h.p.t._.9X1Xo.O X h t.F K.G.] p.t.x C u.[ y.`.r.r.",
"p.p.'._.t.) t.Z @ < 3.p.^ L ^ u.p.q X . h p.t.t.] ^.oX^.u.p.'.'.r.[ t.>.< @ >.p.) J ^ t.p.V . X q p.r.t.( ~.oXE.u.p._.'.u.) [ u.",
"h.qXwXeX1Xp.p.:.8 p u.^ F @XK._ t.>.0 f 3.) I t./.yX*X@Xp.3XwXwX3Xp.p.1.q 8 t.] T oXR.F ] u.f 0 >.t.I ) h.XX*X%X).'.wXwXqXh.u.p.",
"_.rX6.4XqXu.^ ( ( u.t.G.&X6.|.P.) h.'.k.'.t.) p./.yX*XXX/.rXn.v.rXp.] ^ / u.u.H %Xc.[.@XR p._.m.:Xu./ u.i.XX*XyX^.9X4Xx.eX'.[ ( ",
"h.qXwXeX:X^ H.!.H ^ t.H.*Xw c.J.) d.5.= +.h.d.'._.(.!./.p.3XwXeX9X[ G.!.G.^ r.H &X| 4.R.^ h.f.5 | k.p.k.k./.oX^.p.`.eXwXqXu.F P.",
"3.h.1X:Xt.H.[.@.OXS 1.'  X@X XH t.k.7.4 7.'.k.6.b._.>.0 Z h.1X1Xp.H }.+.[.G ) ] P.%XoXG.( d.m.5  .3X'.6.v.k.u.q h p.:X1X_.' oX6.",
"O.p./.i.r.K.n.| {.` u.t.` F R [ t.u.h.'.k.p.;X6.b.'.o.  q u./.e.u.&.}.| =X*.r.u.' H R ] t.t.d.m.k.d.'.6.c.'.3.o 2 u.e./.u.` @X+.",
"p.U.%.%.e.H  X@XG.^ h._.).p.u.[ K L / _.^.).h.;X'.p.t.o.3.^.%.%./.` Q.@XY.R u.`._.p.u.t.^ T / p././.h.:X'.h.p.o.:.a.G.G J.] P.@X",
"u.H.` G a.t.] T r.i.g.;.y.`.d.[ D D [ R.N.N./.p.[ / R W u.J.&.H J.t.] ' ] u.).2.y.).h.t._ %./ ^.N.N.T.p.t.^ R R t.a.%.w.*.i.( ' ",
"^ ~.J.J.i.p.i.Q./.k.;...v g._.u.^ ( u.U.M.N.).t.S K. X%.R r.J.J.i.p.p.P.U.h.y.n s y.h.i./ ^ t.^.B.N.^.u.R F.oXY.L r.=.*.e.p.p.^.",
"L t.t.z x Z g.Q./.h.2.v b ).g.R.^.u.>.y.^.^.p.r.G $X@.$X%.) u.B c C s.R.T.h.g.n v i._.R.R.d.3.2.^.^.g.t.T @X@.[.P./ u.Z x z u.U.",
"S [ c m =.c t.h.h.h.`.i.).`.h.Q.T.u., f p.p.p.W G.[.> }.G./ Q j J.I ( p.h.h.h.g.).).h.R.R.u.0 7 u.p.p.[ S +Xe c.Q.R ) l =.U W p.",
"L t.u =.XXv <.:X3X,Xh._.O.9 q O.p.u.V :._.8X1Xu.L  X$XY.K t.i E tXY Z '.;X3Xh.h.3.7 q V p.p.Z Z h.,X3Xs.P P.OXoXK ( C k XX=.i h.",
"u.p.Q k k c h.m.h 8.1X>.4 } e 4 p.p._.p.:X5X5X'./ T D K ) u.) x k c 3.3XX.o.3X3.9 } } , 3.p.h.h.k.6X5X:Xt.R F A / u.1.c m c >.:X",
"h._.u.) ~ t.h.:XX.9.:Xh w #X{.3 :.m.9.:X_.9X3Xk.p.u.t.t.p._.p.r.! t.d.1X2.8.,XO.3 {.#Xw h :X7.;X_.2X6X'.p.u.t.u.u._._.[ ) ) p.:X",
"_.`._.h.) / p.'.,X:Xd.V 4 [.l.4 3.9.4 ;Xh.h.h.d.d.d.d.'._.).'._.1.^ u._.,X:Xh.>.3 l.z.5 o.m.4 7._.d.h.d.u.h.p.'.'.).`._.t./ t.d.",
"/.).).p.P P t.p.p.p.p.3.q 3 2 g p.'.m.-X^.d.,.r m 2.h.'.e./.e._.I P ) p.p.d.d.p.h , 1 0 u._.m.<X^.h.3.M A o.p.`.i./.i._./ P / p.",
"<X(.i.'./ [ u.r./ [ u.3.h f 3.t.I ] t.E.S./.M { { N '.).).7Xi.'.t./ t.t.) / u.u.V f >.u.W ] t.^.A.^.X.{ { r d.'./.7Xi.`.t./ t.u."
};
