/* XPM */
static char *rose1[] = {
/* columns rows colors chars-per-pixel */
"43 64 81 1 ",
"  c #BC065D",
". c #B61160",
"X c #BA1265",
"o c #BC156C",
"O c #BE1673",
"+ c #BE1872",
"@ c #C00764",
"# c #C60968",
"$ c #CB0B6C",
"% c #C2146D",
"& c #C0186F",
"* c #CD0D74",
"= c #C31674",
"- c #C91773",
"; c #C31974",
": c #CC1977",
"> c #C31779",
", c #CB157A",
"< c #C51A7A",
"1 c #CB1B7D",
"2 c #D4137D",
"3 c #D1197E",
"4 c #C41C80",
"5 c #CC1D84",
"6 c #CE1F88",
"7 c #D61583",
"8 c #D91583",
"9 c #D31C85",
"0 c #D81A86",
"q c #D61788",
"w c #D91689",
"e c #D31E8B",
"r c #DA1E8A",
"t c #D61F91",
"y c #DC1E91",
"u c #CD2184",
"i c #C6248A",
"p c #CC238C",
"a c #D12286",
"s c #D3228C",
"d c #D9218D",
"f c #D4298F",
"g c #CE2691",
"h c #CD2994",
"j c #CF2C99",
"k c #D52592",
"l c #DA2595",
"z c #D42995",
"x c #DB2996",
"c c #D72599",
"v c #DC269A",
"b c #D52B9B",
"n c #DC2B9C",
"m c #DE319E",
"M c #E02497",
"N c #E0269B",
"B c #E12B9D",
"V c #E0309F",
"C c #D72EA0",
"Z c #DC2EA2",
"A c #D730A2",
"S c #DD32A5",
"D c #DE34AA",
"F c #DF39AD",
"G c #DF37B1",
"H c #DE3AB1",
"J c #E12DA2",
"K c #E133A5",
"L c #E235AB",
"P c #E239AE",
"I c #E236B0",
"U c #E33CB2",
"Y c #E83CB2",
"T c #E73FB8",
"R c #E441B5",
"E c #E842B6",
"W c #E644B9",
"Q c #E845BA",
"! c #E749BB",
"~ c #E948BC",
"^ c #E94AC0",
/* pixels */
"lllckllklllkklttttrtttesre6t6e565q5644>>+<+",
"lnlnlckllllvvlkvcvtkkckkkkt6ke66666554>>++o",
"nnnnnnvlvccxclvvllcckckcckkttpkkpp665>>>;+o",
"nnxnnxxxnvnccclvlcxckvcnbztkek6666665>OO;++",
"nnxmxnnxnxnxxncvvxvxnclxzclkkss6spp551=O&&<",
"nmBBmBnBnnBBvnnvxlcxcxnxcclklkskfse95><>o&&",
"xxMxxMxxxNxlNNNxllllllxnxlxllklckrese551;&&",
"MMMxlMNMNNNNBBNNMMMlllNNlllltlrrkre999511;&",
"rr3drrrdrrdrddrdrr0a00s9909333391,,::;&%X..",
"dxMMdxdddlxddddlfddddsddd9993339311:1<;-&&X",
"xxdxMVxllMxxfVBMMxxxddzdfzkfdssaaa95111<-&&",
"xVVBxfMfllMxxxMxxxMxxlxlxxxzdzfsssaaf111;&&",
"xxVVxVVVmxmnMxMxxxxxfxxzdzxzzzdddsaaaa11:;;",
"VVxVVxfMVmKmmmVxMzxxMxxxxxldkfsffauaaau11;;",
"VVVVVmVVmmVVVmVmmVmxBmmxmVxlxxzzdfsaauuu1;;",
"VVVVVVVxVVxmVmVVnmmnxVmmxxxxxxzxzxfaaaa111;",
"xmVVBVBBNVVBKKSVnKJSnSVmAmnbxnxzxzxzfsspu1<",
"332222228800080009r0rqerrrssa999a9a111:1<;&",
"MBBBBMBMMyyMMlyylrrww8w8w087222**$$$###@   ",
"VVVVVVVVJJJJJJJJJBJvvJnnZxnvllkllsese95,,:-",
"NnBMNBBBNJJJKJKJJZJJZKBnJxncxknllkfkse5111<",
"NNNMMMyMyMMyylvMyyyNlcvnvcvnxcnczxlsfeusa11",
"YLKYYLLKJJJJJJJNJJJMyMvMyylydrwreq99959151<",
"RPYLLLLLLLYLLLLLLLJLIKLKLKJJKZZnvlllte9751:",
"KPKPPKEKPPKPKLKKLJKLKLKKZSKSZZSZZbnxxlckkfp",
"PKKKPLVPKKKVLKKKJIKKKKKDJJZZZnnnxczkfssaau5",
"EVKKLKKKKKKKKKKJKKZJZJJJKJNnnnnxncllsssuu51",
"VYKKLKKLKKKKKKKLKKJKJZJZnNZnnxnnxxzdsss6uu1",
"EVLKYLLKKKLLLKLLKSKJSLZKKJJJZJZbbzzclsfaau1",
"EVVVVVKKKKLKKKKKKKLKKKKKSSSSZZnZnxxxlkksppa",
"VBBBVBxNBBNJBBBNNJyJvvvyvvvyllvydsese9p5u1<",
"EEEEEREQEYYYYYYIIIYIIYIILLLKJKZZZnnnclzzfgh",
"!!~Q~~WQQWQ^~W~WW^WWWWWTTTTITTIIIIIDDDDZZZC",
"EEEE~EWTTTTTTTRRTTWWWTRWTTTIIIIILLDDSSZZCCc",
"EWWWWWRRTTTUUUUTTHUTUUUUHHIGGGDDDZZZCCZCczh",
"RWPRRRRRUUUIYUUIIUIGUGIIGGLDDZZZZZZCCbcckpp",
"RUUPFURRUYUUULIIIGILILLDDDDSDSZZSAZbcbczzpp",
"RPRRRUFUUIIUHIUPGLDDDDDDDDDDZZCZbbcnczzhgp5",
"PURFIRFPIIIUUFUIUDIDDDDDKSSSZZZCZbbzzgkp6p4",
"UPPPUUPRFIPPIUPILIGLLLDGSDZDZZZZCnbcckkkpp6",
"PRPPPRRPFIUGPPIPLFDLLIDDKSSZZZZZZbcbczzkp66",
"FRUYFHFRPIPIUFILLFIISDLSSDZSSZZZbbncgkp5544",
"RURPPRRFIIIIIILIILLSZDZZZvbxvvtteee6q555554",
"PPFPFLLFLKZJZbZvbvvvvyZyvccxZvvbvZZbZbnbZbb",
"JZnxxnvvNvNxvZZZJKIGIGIIDUILRFRUDDFDSSZZZCb",
"KLLLLPYIPPTTIITTTURRTTWRRRRRRPPPDDDDSSAACbc",
"TWRTTQWWTWWWQWWWWTRUTUUTURRRFPDFDDDSAAAAbjg",
"Q~WQQWTWWWWWWWRTRUTUUUIGPPFLFFDDDSZnCbbbcgg",
"W!!!WWRRRRTRRURRUUIUUUUFHPPFFDSDSAAAbbcbzkp",
"WRRRWWRWWHURUIIUUUPFGIFPFFFDSSSSAAmbbzzzhpi",
"FRR!WRFRRRGGGUGDIFGGGFDFDFSSSZAAnmbbbzzpppi",
"RRRRRFRPFFFUIGIGGDDDFDSDDSSSSAnAbbbczhhkpii",
"FRRFRFRFLFPPUFDLKDDDDSSSASAAZnnbbbmczhgphpi",
"RFPPRFPLLLDSFDDSSDSSZSZZZZZZAbbbbbbxzzkghpi",
"RPFPSKFFDDLDDSSSSZZSDZZSSAZnZnCZbbbjbbhgiiu",
"mFSFFSFSDDLZDDSKSSDDZZZDSSZZSZAbbzkpi5<>O+o",
"mRFFSFDFDSSSLSKSSDZDASZZCCCjcgp6pu5545iippi",
"SFmSDSKSSDKSDSDSZZCZcczkpqtqpgcjcbbbbbbcjjj",
"SFSFKKSSKSSZZbczkkkkkkcbZZZZZZAAAAZACCbjjbj",
"mFDDSmmbczfkkklxvZZADDDDDDGADGGGDSSACCCCjjh",
"mffzzzxxbmAASSLLDDDDDGGGGDDDDGDAAGDACCjjjhh",
"fmmmSSKSLPUFFIIGGGGGGGGGDGDGDGAGDAAACjCjhhi",
"RSFFFFFRURHRHRGIGGGGGGGGGGDDDADDACCCCjjjihi",
"FFRRRFRRUFRRIUHGGGGGDGAGGAGADAAAACCjjjghhhi"
};
