/* XPM */
static char *rose2[] = {
/* columns rows colors chars-per-pixel */
"64 64 254 2 ",
"   c #6E032E",
".  c #72032E",
"X  c #78022F",
"o  c #6E0632",
"O  c #660A32",
"+  c #6D0A33",
"@  c #730532",
"#  c #7B0334",
"$  c #730834",
"%  c #7B0938",
"&  c #6F163A",
"*  c #7A1841",
"=  c #850638",
"-  c #86063A",
";  c #8B043B",
":  c #830B3C",
">  c #95033C",
",  c #85133E",
"<  c #A5013E",
"1  c #8D0A41",
"2  c #9E0442",
"3  c #970A44",
"4  c #891545",
"5  c #9D144B",
"6  c #9A1B53",
"7  c #A50144",
"8  c #AC0145",
"9  c #A60448",
"0  c #AD0449",
"q  c #A40C4B",
"w  c #AC0B4C",
"e  c #B10045",
"r  c #B3034A",
"t  c #BC034D",
"y  c #B3094D",
"u  c #BB084C",
"i  c #A7124E",
"p  c #BC0552",
"a  c #B40C52",
"s  c #BC0B53",
"d  c #AB1452",
"f  c #A71955",
"g  c #A6185F",
"h  c #B81657",
"j  c #BC1C5B",
"k  c #A42859",
"l  c #B82058",
"z  c #BB2765",
"x  c #B43568",
"c  c #C4014E",
"v  c #CA014E",
"b  c #D0004D",
"n  c #C50251",
"m  c #CA0352",
"M  c #C40B55",
"N  c #CA0A56",
"B  c #C50D59",
"V  c #CD0C59",
"C  c #D20153",
"Z  c #D8065A",
"A  c #C51458",
"S  c #C5155B",
"D  c #CB125D",
"F  c #D3115E",
"G  c #D21B5D",
"H  c #E2015B",
"J  c #F2005E",
"K  c #C1235F",
"L  c #CD1661",
"P  c #C51A61",
"I  c #CC1B63",
"U  c #D51564",
"Y  c #DA1566",
"T  c #D41A65",
"R  c #D91966",
"E  c #D71768",
"W  c #DB1668",
"Q  c #DC146C",
"!  c #D51B69",
"~  c #DB1C6A",
"^  c #E60564",
"/  c #F70266",
"(  c #FB016B",
")  c #E1186A",
"_  c #FA0477",
"`  c #ED1175",
"'  c #F8187A",
"]  c #C22463",
"[  c #CD2166",
"{  c #CD2569",
"}  c #C72B69",
"|  c #D5246B",
" . c #DB246D",
".. c #D4296D",
"X. c #DB296E",
"o. c #C6336E",
"O. c #DC2670",
"+. c #D42C71",
"@. c #DC2B73",
"#. c #DA2578",
"$. c #C93876",
"%. c #D53273",
"&. c #DB3275",
"*. c #DE347A",
"=. c #D43979",
"-. c #DC3C7C",
";. c #E1236E",
":. c #E32573",
">. c #EA2776",
",. c #E22B75",
"<. c #E42D78",
"1. c #EB2E7A",
"2. c #F72A7C",
"3. c #E5337B",
"4. c #E63679",
"5. c #EA347D",
"6. c #E33A7D",
"7. c #F0337F",
"8. c #97516F",
"9. c #B94773",
"0. c #D0467C",
"q. c #E0417D",
"w. c #FB0684",
"e. c #FB1685",
"r. c #FE0094",
"t. c #FD1C95",
"y. c #D63784",
"u. c #E62A8D",
"i. c #FD2584",
"p. c #E73787",
"a. c #ED3581",
"s. c #E53C82",
"d. c #EC3B82",
"f. c #F33583",
"g. c #F33B84",
"h. c #F8368A",
"j. c #F53B89",
"k. c #FD3E8C",
"l. c #FD2B92",
"z. c #FE219C",
"x. c #F93896",
"c. c #FD07AF",
"v. c #FD31B3",
"b. c #B0748C",
"n. c #D54782",
"m. c #DC4D84",
"M. c #CB5383",
"N. c #D55486",
"B. c #E74586",
"V. c #EC4489",
"C. c #EC4C8B",
"Z. c #F4448B",
"A. c #FD438E",
"S. c #F8478C",
"D. c #F44A8E",
"F. c #E8538C",
"G. c #ED4A96",
"H. c #FE4491",
"J. c #F54D92",
"K. c #FD4D94",
"L. c #F84B99",
"P. c #EB5793",
"I. c #ED5C95",
"U. c #F35294",
"Y. c #FC5295",
"T. c #F45997",
"R. c #FD539A",
"E. c #F65B9A",
"W. c #FB5B9C",
"Q. c #CD6C92",
"!. c #DA6494",
"~. c #D5739B",
"^. c #E96398",
"/. c #F4639D",
"(. c #FB659D",
"). c #FB46AB",
"_. c #FB58A7",
"`. c #F956AF",
"'. c #FE47B8",
"]. c #D27DA3",
"[. c #EC66A1",
"{. c #F866A5",
"}. c #FD65A4",
"|. c #F66AA3",
" X c #FD6BA6",
".X c #FE6CA9",
"XX c #EB75A5",
"oX c #F474A5",
"OX c #FB74A5",
"+X c #FB7AA6",
"@X c #FD74AA",
"#X c #F67CA9",
"$X c #FD7BAB",
"%X c #FA6BB8",
"&X c #FD7BB3",
"*X c #FC78BA",
"=X c #FD05C8",
"-X c #FC2BCC",
";X c #FB05F8",
":X c #FE35F2",
">X c #FA59C9",
",X c #F654D5",
"<X c #FD66C8",
"1X c #F774CB",
"2X c #FE67D7",
"3X c #FB74DA",
"4X c #FB58EF",
"5X c #FD44FC",
"6X c #FB75E7",
"7X c #FB6EF4",
"8X c #D985A8",
"9X c #C995AB",
"0X c #D494AE",
"qX c #F681AD",
"wX c #E789B0",
"eX c #F885B4",
"rX c #EC96B9",
"tX c #F994BB",
"yX c #CFACBF",
"uX c #FE88C8",
"iX c #FB98C6",
"pX c #FB89D9",
"aX c #FD99DC",
"sX c #EBA9C5",
"dX c #F9A4C8",
"fX c #F0ABCD",
"gX c #F7B1CE",
"hX c #EEBCD4",
"jX c #F9BBD8",
"kX c #FC96E9",
"lX c #FC8DF0",
"zX c #F999FC",
"xX c #FBA5EA",
"cX c #F6B5E9",
"vX c #FEAAFD",
"bX c #FBB7FB",
"nX c #DCC4CD",
"mX c #EAC4D4",
"MX c #F6C6DB",
"NX c #FACBE5",
"BX c #EBD6E1",
"VX c #F7DAE9",
"CX c #FDC6F9",
"ZX c #FDDBF7",
"AX c #EEE1E7",
"SX c #F6E1EB",
"DX c #FCE3F2",
"FX c #FBEBF4",
"GX c #FCE9FB",
"HX c #EEFDFA",
"JX c #F6F6F7",
"KX c #FCF5FC",
"LX c #F5FDFD",
"PX c #FDFDFD",
/* pixels */
"KX&.j $XK.n m.}.OX8 O.p @Xk   . J.@ PXt  .M PX3.D O.eXK.m.$XR.PX.X5.Y v @ C.8 (.V a FX8 .X[ - 9 q.Y.dXKXK.9 7 { O.@ S.PX .# K.A.",
"X. XqXPX7 KXH.5.j O.1..Xo.iXY @ @X{.U K.U $X> HX7 6.K. .!.W 5. .v e Y._.B.A.c M k. XqXj.8 =.# 5.=.8 ) G PX_ / A.AXW 0 C.PXPX5.Y ",
"R.3.Z e._.3.k.6.7 | n VXK.e 8 -.3.8 0X+XS.(.c }.w n PXj.|.q.PXPXPX3./ :Xe.LXPX3.+ 7 PXR. .A.K.6.PX5.Y X._ PX-XA.| fX5 7 ] k.X.LX",
"U  Xt.PXx.+.~ R  . .eXw..XC _.2.#  Xm #X8 LX1X:XH.K.N I W.PXc PX3.v NXPX_ @ }.i 4.c /.iXNXR 0.T.F .X XU H KXzXK.E.h (._.[.0 & I.",
"@ /.n ( v @  ..X. 4.g.-Xr 8 2XkXKX`.) 7 NX$X( lXy k.K.$ y o K.8 X.{ > t.).. }.A.D | 6.) LX#  .H.v eXU Q 0 k.{ $Xv 7 v 5.@X$X+.cX",
"K.A U g.Y D @ K.Y @ 7 f.Y Y 2.ZX,Xv R.4.A.}.Y O..XA.jX~ n U I 5.+XFX9 $Xm 5.A.$X.X$XPX .~ h v 0 .XU 6X-XO..Xo W  X X XF.oXPXc 5.",
"<.FX$XsX> A.8 A.c R @X5 v p 1XPXzXPX2 }.S.N E..XPX . X8XO.K.$ n  .v ;.PXa.PX XW.3.5.W 8 1.@ J.oXOXX.H.%XiX9 W a.Y ].VXH.,.X.PX+X",
"5.R.5.i.PX0 7 J.v A.E.v  .%./ %Xe u.Y p A.o.A.K.m y A.+ 5.7 k.$XA.r h Z.H.k $Xa  .n Y 8 PX3.$XK. .@ PX .s. .O.a .X; Y V K.5.W.$ ",
"@ @XO.>XkX_ 7 @ C.*XuX*Xs.f.K.Z Y KX; K. X}.Q.H.o +.3.3.s.W -.T $XM KX= +Xe $XJX3.$XO + r 7 O.}.5.D.K.n } A.;.@ c 7 : U &.n.%.K.",
"$X+XX.j.l.LXY M 7 y.JXh.PXrXI 5..XK.4.3. .8 C.VX7 j 3.0 A. .LX@ $XPX4.U 5.m ^.gX@ h.9 p.mX9 Z.@ NXPXpXa.5.Y K.) J.bXeXLXA.8 A.Y ",
"{.F.e /.@ ..$X$ *.x.pX- + d.J.7 +Xr 6 H @ K.T < r :.5.7 9XPXI .X7 K. X.XS.K.R.W.VX3.| U * p W U K.<Xh.A.w # }.j 7.ZX6XXXsXW.A.@ ",
"9Xr 5. XmXU A @ - 8 ~ V Y @XA.) U > ;X. % +X: >.j e A.4 O.l._ x.+.Y c U O.3.T.K.JXL g.3XxXuX.XX.1.9 6.xX<X<XA.r $X&.a.- k.PX5.{.",
"q %.LX3.ZXx.z H.N . R.GX}.7 T PX Xa.j.t H.K.+ , $  XA.A .X,XvX6X@ K.#XsX<.LXa.a PXBX3.W. Xt S.A.U U v w.LX( # 0 K.S.$X# v +.E.+X",
"Y # + w KXFXQ #.| s  .m R 3.v @XPXU 5..Xv $X X4.w H.iX XL.>Xc.z.R.% I.a.+ Z.| 3.n $X|.W +X,.} 5.B n @ CXaX( 3.H.0  .$X| ~ 7 c {.",
"9 PX5. .v.7X/ n + gXPXv 7 f.Z.w + U./.PX9 p K.A.K.ZXPXJ.{.m H  .B.3.f.{ H.rX-.O.1.$X: 9.3 .X8X/.W [.W s.H @.y 0 K.K.u + FXK.8 A.",
"k.jX~.5.).a ] D.U Y  .Z.PXd 1.> iXo b.A.; M ;.7 3.+XX.O.LX@.H.n t t _ W U m +XK.PXn B.. :.| J.VX@XK.z k.8  .5. .@ E.v c R.v f 7 ",
".X8 $  X<.  iX Xc A uXc K.A.B.S.v {.7 v t 6.$XY 0 PX;.$X8 | s.8 A.U CX|.  8.X.K.7 FXm }.U 0 t .XD 8 ~ M 0 | n *.A.| Y.tX8 U o Y ",
" .v hX9 # 5.W.8 X. X=Xc (.@ jXL } i b.A.BXP.eX^..Xm  XT 3.S.PX..@XW O.8 |.!.D  .k + PX+X8 8 O.8 # v O.4.A.+.LX#X@ ; i.J.| v @.Y ",
"x @ H. XM oXk.@ K.4.c.5.W A.$ @.tX>.5.+ @ :.PXM.A.3.0.eX+XJX8 8 c oX>.D.sX| U KX&.$ 5.Y Y 8 v 8 $.9 $Xn 3.V PX9  XPX_.  0. .PXY.",
"H.H.v H.oXX.5 m (.~ c <.K.U tX6.!  .OX .s H.e A.y c oXd.T qXA.A Y 9 8 3.c @.3.PX7 7 iX$ KX+XK.LX9 O.H.8 &Xx  .8 %..Xc Z.8 *. .X.",
"}.3.T H.c $Xa.@.K.| |.H.6 v K.% %XO j.; C y }.5. .Y ~ 7 6.KXY T A.A.K.(.r 7 S $X~ A c |..Xk.a W PX[ y s c j Y 1.Z.R.1.7 $Xc Z.OX",
"3 P.vX).m W.W <.g.X.^.PXmXFXY J KXH iX4Xq 5. .| +XK.A.j ^.$.0.A.U ;.PXhXR.n V.PXf.8 A.e.; ;. X.X7 PX..M $X~.A.7 PXq , F 3.. $X/.",
"W 5.1 x.f FX.XA. .Y S.3.3.; U }.'.9 a.^ h.$X7 dXC PX>X .KX X$ +XK.F Y - 5. .T O.K.! H.' v.m ;.KXA Y X. .+.V 3.n ^.5.$ B.k.5.K.,.",
"7 ~ PX8  X|.- A.X.C.LX| 5.Y a D m ! @ e R.2 t H.kX5X;XJ N.FX@ t N 7 J.7 O.v s.7 $XK.s 7 U FX7 .XqX+.7 R.) H.}.4.5.5.8.; 3.7 7 A.",
"@ y PXV 7 ~ OX$X8 C.A Z.$XMXA.V.$X9 6.PXc J.A.$Xy v.z.U +X.Xd.@XA.$X5.C.m LXz C.A.0X@Xy 7  X4.8 ..2.# &.{ c + LXLXF n.0 > s.8 r ",
"fXk $X5.9.- $X .8 K.t PXg.3.. $XqXD. X~.;.7 A 9 7 Y.k.M T $X@ 0 r w $XPX X4 F...c q.K.@ 5.F @ PX .$X Xr ! @X_.] < Z.z PX$X.XT A.",
"8 }.T.@X5.6.MXa.@ K.v 7 f . 9 K.w X.m ] r t F U I FXA.5.{.t R.8 d 8 A.R n H.v 0 | >.w Y @X.X8 #Xd LXK.GXz.i.c._ 5.7 VX^ `.+  Xv ",
"7 @ 8 r Q.$ 5.# %.Y @XH.D. XXX$X@ 8  X5.K. .Z.P.1.| E.hX .G >.PXX.8 n PXL 8 .X3. X .Y K.i X.K.Y T.U X.uX8 `.bXc.t $X/ PXv.$Xv 8 ",
"T <.$ PX~ .X}.e @.$Xs PX7 dX .4.PXW PX&.C @ e _.U  .0 PXf.X.T [.H.r MX$Xe +X# PXPX5.5.7 +X@ 6.  S.R.qXy j # 3X/  .T ) - iXT J.m ",
"m.5.VXH.w wXn Z GX`..XA.H.A.d.e B a.8 PXc $X$.9 $XPX(.{.PX8 Z.R ,.W.k.A ;.PX0 +X7 6.A.v 8 K.5.c W A.k X 7 @ +X$XS.U 3..Xe $XU.O.",
"e $Xn 9 | Y |.( % k.5.! +XL | H.}.r Y 3.d 7.cXKX- @ 7 [ v FX3.@ qX .c ;. XA.LXn J..Xj N.t   o t (.R.Z.T w ] % Z.:.f.Z. XB.jXK.c ",
"0 y gX.XPX3.-.o U @ 8  .7 Y W LXW.r .X6.$XqXtX .8 3.P.OX7 U n.#XA.GXC.R..XPX{.U LXA R.$X.X .7 B.M :.v A.(.4.O.8 8 < X.R n c r E.",
" .1.0 # w O.W H.8 {.U 7 PX8 0 w S.. 7 uXs O..XF A KXW 8 | O.9 w @ Y..XJX7 y h % O.v O.K.K.,X4.m 8 OXz.v.f @ [ A.m ; XX<. XF $X7 ",
"X.0 :.X.< Y 8 A. X$X@ K.D.{.D.v $Xv S.`.K.2.s.PX3.PX6.s c 7 o n W s.$Xc T A.R.gXPXW }.Y 5.t.< 2.8 C.s  .h :.X g.-X~ 9 v K.U  X9X",
"K.d.O.oXI ].PX3.0 eXHX1Xz.3 iX%.c -.7XzX'.8 n N .X5.9 <.KX$X$X$X$Xj.K.$X8 $Xt  Xk.| #X Xc R PX+XKXK.$X.X+ A.@ W bXJ.%.@.K.KXR.7 ",
"PXOX}.. # PXq 1 {.dXj ,X4X_ .X@ eX/ :XHXvX).a. .PXtXR.% n 8 V.! 7 7 c E.V .X6.s 5.t OXI R.@ .X .v 0 W 3.PXW.# $ V.A.%XPX.X8 PX0 ",
"K.I 0 ! iX9 f a.3 9 R '.KXt.9 n n k.4XFX7X9 JX$X5.VXU v O.l.7Xg +X .e hX X .. w 8 PX8 T aXC J.e <.S.W.$XT $XoXH.PXK.>Xz $XK.0 @X",
"o.8 >.bX1.H.8 8 H.3 nX#XL.U Z @ E.G.j.JX7 PXv OX8 v qXyXY L.;Xr.q Y A XXW.6.$ 8 8 U 8 .Xw.G.J.4  X~ KXA.# + m % 4 =X5XH m A.T . ",
"7 {._ j.K.}.U +.PXjXE.*.0.~.P.K.n FX0 $.A.e  .7 R 0  .< a ) e.'.&.k.A.K. ..Xt < E X.$X}.sX X~ c v M @ O.B.sX7 m :.w.;X>Xh.v ,.2 ",
"7 NX9  .7 n r  .:.% 0 $X7 .XPXR..Xw I 0 oXK.K.5.8 N b.Z.M 7 U v K.K.Y G qXh 8 $XqX .K.T O.8 5. .A.eX,.Z.R.PXSXW.*XHXB '.C.=.9 :.",
") . 5..XZ.oXa.| $ FXY.d.A.KX XY. X5.+ O.R.+XK.( Z _.8 KX$X.X4.n .X@  .H.V.a.$ k.VXrXZ. XE.8 @ ~ U $ p VXc v A.Z.uXD.aX Xc +X.Xm.",
"+.v 4.8 e A.LX  z +X8 $XJ.7 K.d.V e &XA.j Y t ; lXW e X.A.W Y @ s.;.KXPXs.PX# $XPXY 8 +Xs p 7 +X$ a K.JX..8 {.F n LXh.@X>.S.F.> ",
"O.V.dX3.U +.U A.A.7 0 4.t.c.M O. .g.0 U  .J..XP  ..XKX$Xc V.W 5...a +X4.DX8 K.U 9XY V e S.;.F Z.T.k.' bX>.5.D ~ 3. .P. X0 H.5.3.",
"n PX(. X$XR PX{.@ .XPX5. .`.0 c S.a.7 K..XPXV.n PX7 @.} 9 A U $ $X7 K.9 3.E 5.Y.M 8 + s.2 7 7 9 PX. % K.< G LX  W jX;.K.$ +XC.K.",
"3.+.v @ 7 lXpXg.8 > K.J.J. XgXK H.D A Z.z $ U h >.Z.@ c x.%X{. .$XA.P.U L 4 PXW  X{.@ h @ ;..X8  XY  Xc K.c 0 W.Z.u PXW. .$ @ W.",
"9 K.d.=./ PXvX^ G $.PXJX .G .X.XR.c Y 5.$ v  X@Xr K.3.<XPXVX| n + J.n ,.L +X$XH.8 #X8 Y W K.v K.KX .}.| j Z.Y K.U 5.R.%.] 8 $X@X",
"0 v H.s g zXv.9 O.B.U.r 8 - 8 <  XZ.+XB.KXLXU 1.t %.8 M Z sXY  .Z.<.r K.!..Xh n . K.8 ! @ U o.$X5.M 7 C.0 d.{ v 5.U  .v v $X@ S.",
"PXZ.{.1.t .X$X-.8 | R 7 Y ; KXe r x 5.M PXM OX~ e {.U d .X#X9 a.(. X/..X- H.p PXv m R.}.-.K.-  .A. XSX8 d.m  XfXjXA.$XK.@ M  .R.",
"U f.K.Y.j.8 j.Y.(.G  X7 7.7 U @.5.Y  .cXCX+ +X$Xj 8 r | $Xr 3.P 7 3.+X7 .X.X_. X+X$ - Y.Y v 5..XD n MXDXm w q 0 3.9 3.c e : a. .",
"5.8 i K.5. XI.- 5.{ J.DX&Xv &XeXH.@X.Xt.GX# 8 L.s.MXW..XJ.W O.uX5X*X(.K.X.e KXp U +XR.9 ~ S.Y K.-.<.=.; 7 8XA z (. Xm I.+X .PXX.",
"b A.MX..Y DXA.@ }.@ . I 3 / C %X2XVXm .X0 U AXy lX,X3XF $X0  .x.7 e  .9Xk.Y A.7  XI.A.! dXiX| K.Z.K.$XK.2 MX$ K.JX&.8 e  X3.c q ",
" .U 9 LX7 @ 6.  m.<.d.~ 8 &XKXvX2.:.] LXy.#X7 $XZ ;XvXO.< Z.D K.k.w v JXD.eXt X.9.A.VXK.U W D &.7 7 + . 9 4.( ' 8 8 PX8 f E.{ BX",
"7  .( '.'.{...!  .9 $ LXA uXPXPXj.8 U U k.PXX.AX^ vX<X+Xd 0 r V.PX$X3.tXOXD.| A.F # K.@ 7 J.8 / cXi }.0.R % KXf.PX . .K.PXA $ 9 ",
"R. .xXPXCXK.6.@Xf.8 A.{.@.( eX).x.$ H.B.A.&. X|.a.K.} V $X.XY 5.8 S..XC.K.# 8 d.$XA.k.W.BX% O.'.` PX5.FXX.R._.KXV B K.8 W $XLX$X",
"OX7.aXu.JX XA.PX{.e :.9 +XY *.C .X<.I |.}.m.;.8 H.m.w.V O.7 0 +Xf v PX0 LX}.7 _._ {.*XPX| J.t 7 7 K.e PXm PXt K.K.U PXH...8 1.7 ",
"g.~.PX5.G.7 5.5.] GX^ >.MX| fX .Y.% KXN.{.Y.8 g.+XE.xXZ k.<.U w .XLXA.0  XA..XtXdX~ {.K.O.}.A. XA.K.PXU.oXw PXK.S.!. .CXD 7 ~.q.",
"W.7 k.}. .< ! + l.LX;Xx.# C..X#.8X .8 c .X7 3.7 U $X$XK.m +XKXN % A.m A.qX$ $XK.r j.d.u PX#X5.PX$XA.8 R.PXs ZX/ 9 tX-.r.) A.K.K.",
"7 >.A.8 ~ PXA.- OX).bX .g.PXN.%XI o ^.K.u  ./ $.<.3.~ 8 (.5.Y.v +X# gXeXO.FXA /.# BXPXv K.V z G @Xz 5.8 PXPXv.PX2X .r | T MXB a.",
"$XVXV.@X8 4.$Xz OX8 #XJ.|  Xx.PX2XI M K.A.kXPXM O.OXn A 8 $XY.K Y $X_.@ }.U H.T v h.+ t K.I CXPX_.7 8X$X< q.'.-Xt.v E } @.(.A.KX",
"7.PX$XPXuXY # I 8 + K.7 PXn Y l.W K.. 8 o.X.c $ S.Y.&.e R.L.%.<.X.k.x +X5.7 A.;.W.GXl.& v a.$ f.8XV 0 5.w LXA.e $X7 3.B.8 E.dXVX",
"W.S.DX*X/ PXO.$X7 5.n P.K.A. .| A.m.9 ! |  .~ PXLX7 HX0 uXLX4XOX[ 3 K.FX$Xv A.{.c x.PX$.5. .XXY 8 f.7 @XH.| 5.V KXc LXPXW Y s.! ",
"C.5.E.U $XFXM.@ %.PX+.$ c +Xn 8 OXPXH.H.! 9.$X,.0 n 3.1.JX- iXe qXS.] K.3.H.H.3.m C.,.;.Y !.a  .R + A.| Y.M ) PXY R.5.n ZXNXY k.",
"t K.#X+XO.2 K.OX3.$XU 8 n s.A.^.7 +XY.+ 0  X0 A./.KXe PX7 6.4.o.A.X. .v 8 + U.PX@ H.Y ,.$X+ K.e $ +.T SXeX Xk.LXU 5.@ >.z p.O.8 ",
"Y D..XG 8 A.0 C A.W | 7 R.+ 4.1 ! 6.6.6.(.<.8 W A.6 3.} ZXY T PX$X .h $X$X}.Y R..X#X$Xk.| dX7 i A.rXL.! N.Y 8 @.@.K.I H.Q q 2 X."
};
