/* XPM */
static char *rose7[] = {
/* columns rows colors chars-per-pixel */
"64 43 207 2 ",
"   c #F01D6A",
".  c #EE1976",
"X  c #EE1371",
"o  c #F51D75",
"O  c #D82171",
"+  c #D23770",
"@  c #D83C79",
"#  c #F4256F",
"$  c #F9206F",
"%  c #F8296F",
"&  c #EE2978",
"*  c #E42F7E",
"=  c #F12076",
"-  c #F32A73",
";  c #F42D7D",
":  c #FA2E7C",
">  c #F72678",
",  c #F53174",
"<  c #F23877",
"1  c #F4347B",
"2  c #FB367D",
"3  c #F33C7D",
"4  c #FC3F7C",
"5  c #D74274",
"6  c #F3417D",
"7  c #FC437E",
"8  c #FD487F",
"9  c #FA2F85",
"0  c #ED3A85",
"q  c #EB3E8D",
"w  c #F33482",
"e  c #F33D84",
"r  c #FF3E85",
"t  c #F83788",
"y  c #F43E8A",
"u  c #FB3989",
"i  c #EF4187",
"p  c #E74689",
"a  c #F54484",
"s  c #FD4284",
"d  c #F44B84",
"f  c #FC4A85",
"g  c #F5428B",
"h  c #FD438D",
"j  c #F54A8D",
"k  c #FD4A8C",
"l  c #ED538D",
"z  c #E6568B",
"x  c #F75086",
"c  c #F1548D",
"v  c #FC538B",
"b  c #F55F8D",
"n  c #FC5E8E",
"m  c #F64796",
"M  c #FB4493",
"N  c #F24C94",
"B  c #FD4D95",
"V  c #FB4598",
"C  c #F54E9A",
"Z  c #FC4D9C",
"A  c #E85F95",
"S  c #FC5395",
"D  c #F25D91",
"F  c #FD5C95",
"G  c #F3529D",
"H  c #FB539B",
"J  c #FC5B9C",
"K  c #F35391",
"L  c #F9608E",
"P  c #EF6596",
"I  c #EF6598",
"U  c #EE6A9B",
"Y  c #EC6995",
"T  c #FC6493",
"R  c #F5639B",
"E  c #FD659C",
"W  c #F36D9D",
"Q  c #FC6B9D",
"!  c #F66694",
"~  c #F87096",
"^  c #F2759D",
"/  c #FB729E",
"(  c #FD7B9F",
")  c #FD4DA0",
"_  c #F757A1",
"`  c #FC55A2",
"'  c #F55BA3",
"]  c #FC5CA4",
"[  c #FE5EA9",
"{  c #F167A5",
"}  c #FB64A4",
"|  c #F66AA3",
" . c #FC6BA4",
".. c #F765AA",
"X. c #FD64AC",
"o. c #F56EAB",
"O. c #FD6BAD",
"+. c #F572A3",
"@. c #FD73A2",
"#. c #F27BA5",
"$. c #FC79A2",
"%. c #F374AA",
"&. c #FD73AB",
"*. c #F47DAA",
"=. c #FD7CAD",
"-. c #FE66B2",
";. c #FE6DB2",
":. c #FE73B5",
">. c #FD7BB3",
",. c #FE76B9",
"<. c #FE7BBC",
"1. c #FE7DC1",
"2. c #D0828F",
"3. c #DA90A1",
"4. c #EC8FAE",
"5. c #F780A4",
"6. c #F483AB",
"7. c #FD81AB",
"8. c #F48DAD",
"9. c #FC8BAE",
"0. c #F885A4",
"q. c #F492AE",
"w. c #F498AF",
"e. c #F784B3",
"r. c #FD85B4",
"t. c #F188B1",
"y. c #FC8AB5",
"u. c #FE83BC",
"i. c #FE8BBB",
"p. c #EF93B3",
"a. c #EE9CB7",
"s. c #EE9CBA",
"d. c #F394B4",
"f. c #FC93B4",
"g. c #F39BB5",
"h. c #FC9AB6",
"j. c #F596B9",
"k. c #FD93BC",
"l. c #F49FBE",
"z. c #FC9CBC",
"x. c #E5A8AD",
"c. c #F3A3AE",
"v. c #EFA6B9",
"b. c #EEACBD",
"n. c #F7A9B7",
"m. c #F5A4BA",
"M. c #FBA3BE",
"N. c #F2AABD",
"B. c #FAABBE",
"V. c #FE85C3",
"C. c #FE8BC6",
"Z. c #FE8DC9",
"A. c #FE93C4",
"S. c #FE9BC4",
"D. c #FE93CB",
"F. c #FE99CE",
"G. c #FE96D1",
"H. c #FE9BD2",
"J. c #FF9FD8",
"K. c #FDA2C3",
"L. c #FCA9C2",
"P. c #FEA3CB",
"I. c #FFACCD",
"U. c #EDBAC3",
"Y. c #F3B4C3",
"T. c #FAB1C2",
"R. c #F3BBC5",
"E. c #FDB4CE",
"W. c #F3BCCA",
"Q. c #FBBCCC",
"!. c #FABEC6",
"~. c #FEA2D5",
"^. c #FEABD2",
"/. c #FEA5D9",
"(. c #FEA8DA",
"). c #FFB3D2",
"_. c #FCBAD2",
"`. c #FFB8D8",
"'. c #ECC2CC",
"]. c #F2C9C7",
"[. c #FACCCF",
"{. c #F0D5CE",
"}. c #FDC3D3",
"|. c #F1CCD2",
" X c #FBCAD6",
".X c #FEC4DC",
"XX c #FDCADA",
"oX c #F3C5D2",
"OX c #F2D3D4",
"+X c #F8D6D7",
"@X c #FBD3DB",
"#X c #F3DBDC",
"$X c #F9DBDA",
"%X c #F7E2DF",
"&X c #FFC4E0",
"*X c #FFCCE2",
"=X c #FED4E0",
"-X c #FCDDE3",
";X c #FFD5E9",
":X c #FFD9E8",
">X c #FBE3E6",
",X c #F7E8E5",
"<X c #FAE8E6",
"1X c #FAECEB",
"2X c #F9E6E8",
"3X c #F9F0E7",
"4X c #FDF1F2",
/* pixels */
"G.F.Z.V.:.q.Q -.V.A.D.D.A.C.[ Q._.X.D.D.C.A.Z.C.:.B s ,.<.C.D.Z.D.C.C.H E.I.;.Z.D.D.D.Z.G.Z.,.} M.,.V.D.G.H.H.H.C.m E.&XV.H.H.~.",
"F.D.Z.V.,.D Q -.V.F.D.D.D.C.X.m.E -.Z.D.D.Z.C.C.,.h M.i.<.Z.D.A.D.C.V.X.+.F <.Z.D.D.F.D.D.Z.,.` f >.C.D.F.G.G.G.Z.C  X^.Z.G.H.~.",
"F.D.D.V.;.W z.X.V.D.D.D.D.C.:.f h ,.C.Z.Z.Z.Z.C.;. .1X>.<.Z.A.C.Z.D.V.X.:  .1.Z.D.D.D.D.D.Z.1.M  .P.V.F.G.F.H.F.C.[ +.&.F.G.H.~.",
"G.D.D.C.O.v.Q.[ V.D.D.D.Z.V.X.v h.:.D.D.D.Z.Z.C.;.=.L.] V.Z.Z.D.Z.Z.C.] F }.,.C.D.Z.F.Z.D.Z.<.V $XP.1.F.F.G.G.F.Z.) 2 i.D.G.~.~.",
"G.D.D.Z.;.b.9.] V.D.D.Z.Z.C.] m.}.X.Z.A.Z.Z.C.C.,.J 8 X.u.C.C.D.Z.Z.C.` l.@X;.A.D.D.D.D.D.D.,.J $Xu.V.F.G.F.G.F.D.V &.&XC.H.~.J.",
"G.D.Z.C.;.#.F X.V.D.F.D.D.Z.] W.k.X.D.Z.Z.D.C.C.,.u T <.u.D.D.C.Z.Z.Z.} f.y.:.Z.Z.D.D.D.D.D.<.] / :.C.D.G.G.G.F.Z.m  X.XC.H.H.J.",
"F.G.D.Z.,.l +.-.C.D.D.A.D.C.;. .f ;.C.D.C.C.C.C.,.S +Xu.V.Z.C.D.Z.Z.C.;.k f <.Z.D.D.D.D.D.D.V.y f C.C.F.F.G.F.F.Z.] B.r.D.H.~.~.",
"G.D.D.Z.;.+.T.X.V.D.D.D.C.V.;.2 E ,.C.D.C.D.C.Z.;.%.$XO.V.C.D.C.A.Z.V.-.2 y.1.Z.Z.A.Z.D.D.C.V.t M.P.V.F.F.G.G.G.Z.[ r :.G.H.~.H.",
"F.G.F.Z.;.a.R.] C.F.D.D.C.C.X.+._.;.D.D.C.C.A.C.,.+./ ` V.C.Z.Z.Z.Z.C.X.W :X,.C.D.D.A.Z.D.D.<.H ,XD.V.F.G.G.F.F.G.Z r I.Z.~.H.~.",
"D.D.D.Z.:.d.$.` C.Z.D.D.D.C.] Y._.X.D.C.Z.C.C.C.<.h 4 >.V.D.Z.Z.Z.C.C.[ d.}.O.Z.D.D.Z.D.Z.D.<.} Y.:.Z.D.G.D.F.F.G.V L.*XC.H.~.~.",
"D.F.G.Z.<.R v X.Z.D.Z.C.C.C.X.m.E X.Z.D.C.C.C.V.<.y M.i.V.D.Z.C.Z.Z.Z.;.W T ;.Z.D.A.D.D.D.D.V.C d ,.D.F.G.F.G.G.G.` oX^.C.H.H.~.",
"D.G.D.Z.<.l 0.;.Z.D.D.D.D.V.:.s f ,.C.C.C.D.C.V.,.| ,X>.V.C.Z.Z.Z.Z.C.,.: v V.C.C.D.Z.D.D.Z.C.9 Q F.Z.G.G.D.F.G.D.X.W &.G.H.~.J.",
"D.G.Z.D.,.#.R.-.D.D.D.Z.C.C.O.a k.,.C.A.Z.C.C.C.,.*.B.} C.A.Z.Z.C.Z.Z.:.y Q.u.C.D.D.Z.D.D.A.C.k $XF.Z.F.G.G.F.F.F.] > i.G.~.H.~.",
"D.G.G.D.:.p.Y.] A.D.C.Z.D.C.] d. X-.D.C.Z.C.C.Z.<.} 7 O.Z.D.C.Z.C.C.Z.;.+.,X>.Z.D.Z.D.D.Z.F.V.| $Xu.D.H.D.F.F.G.G.Z E *XZ.~.H.~.",
"G.D.Z.D.,.6.~ X.D.D.Z.Z.Z.Z.X.R.z.X.D.C.Z.C.C.u.C.u T C.V.<.C.Z.Z.Z.Z.o.*.h.O.A.D.D.A.D.D.V.<.&.( <.D.<.F.F.F.H.G.H W.*XZ.~.~.~.",
"D.G.Z.D.V.c n ,.V.C.D.Z.C.C.;./ f ,.C.C.Z.Z.:.>.:.S $X .} r.C.C.Z.C.C.u.j s ,.C.D.Z.Z.D.C.:.i.9 v O.} i.D.Z.F.G.G.O.m.C.D.H.~.H.",
"G.C.i.Z.<.A w.} i.i.u.Z.C.C.;.1 F <.Z.Z.C.Z.>.e.&.B ! k r.S.i.,.A.Z.C.V.; $.A.V.D.C.C.F.,.i.i.3 Q V r.S.A.C.F.F.G.o.e &.G.H.~.~.",
"D.:.i.i.=.C A  .i.A.>.V.C.Z.O.! E.,.A.C.C.V.>.=.=.W X R y.K.i.:.Z.C.C.u.N #Xi.V.D.Z.D.C.H r.r.6.= B k.k.I.V.G.G.H.[ 1 I.G.H.~.~.",
"C.o.>.i.t.* a e.y.S.&.V.C.C.] Y.}.;.D.C.Z.V.} S.r.5 {.E | k.>.,.Z.Z.D.,.+.+X>.C.A.Z.Z.Z.[ e.C.p x.r.} u.A.V.F.G.J.] j.;XZ.~.~.~.",
"C.:.i.A.O 2.E y e.k.] V.D.C.-.m.@.;.Z.Z.C.i.<.>.`  .].O.<.>.<.C.Z.C.C.V. .T O.D.Z.Z.Z.Z.C.V.<.o.9.&.V.V.C.D.G.G.J...W.).Z.~.~.H.",
"C.C.<.[ i i s ,.,.:.-.C.Z.C.,.d g <.C.C.C.C.C.V.V.R f O.D.Z.A.C.C.C.Z.C.g 7 u.C.D.Z.Z.Z.D.A.F.O.- =.D.G.G.F.G.F.H.,.@.&.H.~.H./.",
"Z.Z.Z.Z.;.a r.u.Z.Z.Z.C.C.C.;.1 9.<.A.C.C.C.Z.V.C.e L C.C.C.C.C.C.Z.Z.Z.e g.P.V.D.Z.C.D.D.C.G.` b `.C.G.F.G.H.G.F.,.$ r.Z.,.(.H.",
"D.Z.C.Z.-.g.XX,.D.Z.Z.Z.C.Z.X.8.XX,.D.V.V.C.C.Z.u.K  Xi.C.C.D.C.Z.V.u.Z.} %XA.C.A.C.Z.Z.D.D.H.' R..XV.F.D.F.D.o.P.X.R }.Z S.`.F.",
"D.D.Z.F.;.oXz.,.D.Z.C.V.<.V.O.Y.L.:.Z.C.C.C.i.Z.,.6.$X,.D.C.C.C.Z. .y.:.} B.J >.i.F.Z.D.Z.Z.F.-.W.i.Z.G.F.H.V.>.F.&.5.V O.P.P.^.",
"D.D.Z.Z.<.6.k V.Z.C.C...r.V.X.=.k ] >.V.V.C.C.C.<.*.( ;.D.C.Z.C.<.} r.H Q o u r.S.K.C.D.D.D.D.>.d } F.F.G.H.,...S.y.z m >.P.`.~.",
"Z.D.Z.Z.,.1 J V.Z.Z.u.H j.P.>.# % B i.=.;.A.C.C.V.a s u.C.C.C.C.,.R =.Q I . } k.u.S.i.Z.D.Z.F.-.- k.D.G.F.G.u.` ^.C.5 1XC.V.D.F.",
"D.Z.Z.D.-.^ I.1.Z.C.,.' S.%.6.. w #.&.r.,.C.V.V.<.w h.V.Z.Z.C.C.<.J >.J + ].y } P.K.<.D.D.D.F.[ #.*XZ.F.F.G.D.V.D.;.*.@XZ.~.H.~.",
"Z.Z.Z.Z.X.|.).,.D.C.V.' e.>.@ 3.} l K.k.u.C.C.D.:.5.%X,.A.C.C.C.C.<.X.] #. XX.Z _ >.<.D.Z.D.F...W..XV.G.G.F.F.H.F.F.| E D.~.~./.",
"D.Z.Z.Z.;.Y. .1.Z.C.C.1.O.[ G v.} -.r.>.<.C.V.C.;.g.L.;.Z.C.C.C.V.C.D.V.W n ;.Z.<.u.Z.Z.Z.D.F.>.8.=.Z.G.G.G.H.G.G.F.; E ~.H././.",
"Z.Z.C.C.,.p y C.V.Z.V.C.V.V.:.3 B V.V.V.C.C.C.C.,.! v <.Z.C.C.C.Z.C.C.V.; v i.Z.D.A.Z.D.D.Z.D.,.-  .F.G.F.G.F.H.H.Z.y XX~.~./.~.",
"Z.Z.C.C...3 u.V.Z.V.V.C.C.C.` d S.u.C.V.V.V.C.C.,.- +.C.C.C.C.C.C.C.Z.u.i Q.C.Z.D.Z.Z.Z.D.Z.F.-.1 E.Z.G.H.H.H.G.~.C.*.4XF.~.~./.",
"Z.Z.C.Z.' Y.).1.Z.C.Z.C.V.Z.` U.^.,.Z.C.C.V.V.C.-.Y  X<.Z.C.C.C.C.C.C.,.6.,X<.D.Z.Z.D.D.D.D.G.O.p.:XC.H.G.H.G.H.H.Z.e.K.C./.~.~.",
"C.C.C.Z.X.#Xi.1.Z.C.V.C.V.C.} OXr.<.C.V.V.V.C.Z.X.b.}.:.D.C.C.Z.C.V.D.,.6.h.,.D.A.D.Z.Z.D.D.H.:.Y.I.V.H.H.G.H.H.~.F.m S F.~././.",
"C.Z.Z.V.o.8.Z V.C.C.C.C.C.V.o.^ S V.C.V.V.C.V.Z.;.8.@.1.C.D.C.C.C.C.C.V.j f u.D.Z.D.D.D.D.Z.F.<.A E D.F.H.G.G.H.G.F.= k.(.~.~./.",
"C.C.C.C...1 E C.C.C.V.C.V.Z.' , &.V.C.C.C.V.V.V.,.< K C.C.C.C.Z.A.C.C.u.& 9.D.Z.D.Z.D.D.D.Z.F.<.  =.F.H.G.H.H.H.~.C.R 4XH.~.~./.",
"C.C.C.C.G W F.V.Z.V.Z.V.V.C.G 5.I.1.C.C.V.C.V.Z...3 K.V.D.A.C.C.C.C.D.,.I -XV.D.D.D.A.D.D.D.G.:.l *XZ.H.H.H.H.H.~.V.j.=XD.(.~./.",
"V.C.Z.Z.' OXP.1.Z.C.V.V.V.V.' OXS.1.Z.V.V.C.V.Z.' s.XX<.Z.Z.C.C.C.C.Z.,.p. X,.F.D.D.C.D.D.D.H.;.a.-XC.H.H.H.H.H.~.Z.+.+.F./././.",
"C.C.C.1.o.|.O.V.Z.C.V.Z.C.V...R.} V.Z.V.C.V.C.Z...U.S.1.Z.Z.C.C.C.Z.Z.<.+.Q <.D.D.Z.D.D.D.D.G.<.d.k.C.F.F.H.H.~.H.G.> E ~.~./.(.",
"V.Z.C.1.o.b ) Z.V.Z.C.V.C.V.{ d ` C.V.V.V.C.V.Z.:.! H V.Z.C.Z.C.C.Z.C.u.& F Z.D.D.D.D.D.D.D.F.V.e F F.H.H.H.H.H.~.Z.0 .X/././.(.",
"Z.Z.V.Z._ w ,.V.Z.Z.V.C.C.V.C 0 u.V.C.V.V.C.V.C...# &.C.Z.Z.C.V.C.C.C.,.0 _.Z.Z.D.Z.D.D.D.D.F.V.. z.G.H.H.~.~.H.~.V.t.4XF././.(.",
"C.C.C.1.G K.F.1.Z.V.V.V.C.V.m Y.P.1.C.V.V.V.V.C._ Y `.u.Z.Z.Z.Z.C.C.D.-.4.-X1.D.D.D.D.D.D.D.G.,.{ 2XD.H.H.H.~.H./.C.j.I.D.(.(.(.",
"C.C.Z.1.{ 2Xe.V.C.V.Z.V.Z.1.{ #Xi.1.C.V.C.C.V.Z.' '.).,.Z.Z.V.C.C.C.G.;.a.z.1.D.Z.D.Z.D.D.D.H.<.g.@XV.H.H.~.H.~.~.Z.j E H.~./.(.",
"1.Z.V.1.o.Y.' Z.V.C.C.V.C.1...p.H C.V.V.C.V.C.C.X.N.>.V.Z.C.Z.Z.C.Z.Z.1.l S C.Z.D.Z.D.D.F.D.G.1.#.$.Z.H.H.~.~.H.~.D.o i.(.~./.(."
};
