/* XPM */
static char *rose5[] = {
/* columns rows colors chars-per-pixel */
"62 64 229 2 ",
"   c #8E2C7A",
".  c #922D7E",
"X  c #91367F",
"o  c #962E81",
"O  c #9B2F86",
"+  c #953382",
"@  c #9B3186",
"#  c #9E3289",
"$  c #9D3B8A",
"%  c #A02F89",
"&  c #A3338D",
"*  c #A8338F",
"=  c #A33B8E",
"-  c #A63490",
";  c #AB3594",
":  c #A63B91",
">  c #AC3B95",
",  c #AF3798",
"<  c #AE3C99",
"1  c #B3379A",
"2  c #B3379B",
"3  c #B53A9D",
"4  c #B8399F",
"5  c #B73BA0",
"6  c #BB3BA2",
"7  c #BE3DA8",
"8  c #C13CA6",
"9  c #C43DAA",
"0  c #C93EAE",
"q  c #C63DB1",
"w  c #CB3FB1",
"e  c #9C448B",
"r  c #A1448E",
"t  c #A44491",
"y  c #AB4296",
"u  c #A64B94",
"i  c #A94C96",
"p  c #AD4399",
"a  c #AC4B99",
"s  c #B3439D",
"d  c #B34B9E",
"f  c #AC519A",
"g  c #B1539E",
"h  c #B743A1",
"j  c #BC43A4",
"k  c #B64BA2",
"l  c #BC4AA6",
"z  c #BE44A9",
"x  c #BE4DA9",
"c  c #B553A2",
"v  c #BA52A5",
"b  c #B65AA4",
"n  c #B95BA6",
"m  c #BE53AA",
"M  c #BC5BAA",
"N  c #BA61A7",
"B  c #BC62AB",
"V  c #C142A7",
"C  c #C244AA",
"Z  c #C942AE",
"A  c #C34BAC",
"S  c #C84AAF",
"D  c #C354AD",
"F  c #C25BAE",
"G  c #C545B2",
"H  c #CC42B2",
"J  c #C64DB1",
"K  c #CC4BB3",
"L  c #CD46B9",
"P  c #D143B5",
"I  c #D04BB6",
"U  c #D544BA",
"Y  c #DA44BC",
"T  c #D44BBB",
"R  c #DA4BBE",
"E  c #C655B1",
"W  c #CB53B4",
"Q  c #C55CB2",
"!  c #CA5BB5",
"~  c #CB53BA",
"^  c #CD5BB9",
"/  c #D553BC",
"(  c #DA52BF",
")  c #D35CBB",
"_  c #D958BF",
"`  c #C063AD",
"'  c #C464B3",
"]  c #CA63B5",
"[  c #C46BB3",
"{  c #C96AB6",
"}  c #CD63BA",
"|  c #C769BB",
" . c #CC6BBA",
".. c #D264BD",
"X. c #D26CBE",
"o. c #C771B9",
"O. c #CC72BC",
"+. c #D172BE",
"@. c #DE46C1",
"#. c #D64BC3",
"$. c #DD4BC1",
"%. c #D455C3",
"&. c #DC53C2",
"*. c #D35DC2",
"=. c #DC5CC4",
"-. c #DB54CA",
";. c #D95BCB",
":. c #E246C4",
">. c #E34AC5",
",. c #E847C8",
"<. c #E64CCA",
"1. c #EB4BCC",
"2. c #F04BCE",
"3. c #E253C6",
"4. c #E15AC7",
"5. c #E553CB",
"6. c #EB52CE",
"7. c #E45ACA",
"8. c #EA5ACE",
"9. c #EE4DD1",
"0. c #F44CD3",
"q. c #F84DD6",
"w. c #F64ED8",
"e. c #F94DD9",
"r. c #EC54D2",
"t. c #E658D0",
"y. c #EC5CD2",
"u. c #F353D5",
"i. c #F25BD6",
"p. c #F552DB",
"a. c #F851D8",
"s. c #F55ADA",
"d. c #CE69C2",
"f. c #D564C2",
"g. c #DC63C5",
"h. c #D46BC2",
"j. c #DA6CC5",
"k. c #D466C9",
"l. c #DB65CB",
"z. c #D66BC9",
"x. c #D76BCB",
"c. c #DD6BC9",
"v. c #D573C2",
"b. c #DA72C5",
"n. c #D57AC5",
"m. c #DA7AC7",
"M. c #D675CA",
"N. c #DD74CA",
"B. c #DD7BCA",
"V. c #DD79D1",
"C. c #E364CB",
"Z. c #E862CE",
"A. c #E36CCD",
"S. c #E273CD",
"D. c #E27CCE",
"F. c #ED63D3",
"G. c #EB6BD3",
"H. c #E869D9",
"J. c #F162D6",
"K. c #F06DD6",
"L. c #F364DA",
"P. c #F26CDB",
"I. c #E675D1",
"U. c #EB73D5",
"Y. c #E57DD2",
"T. c #E97CD4",
"R. c #E978D9",
"E. c #ED7CDA",
"W. c #F170D7",
"Q. c #F272DA",
"!. c #F37CDD",
"~. c #F75AE3",
"^. c #EC69E1",
"/. c #F665E4",
"(. c #EF77E3",
"). c #F379E4",
"_. c #CA82BE",
"`. c #CD84C1",
"'. c #DD82CE",
"]. c #D68BCA",
"[. c #D596CB",
"{. c #DC84D2",
"}. c #DC97D4",
"|. c #E181CE",
" X c #E583D3",
".X c #E984D6",
"XX c #E48AD6",
"oX c #E98AD6",
"OX c #EC85DA",
"+X c #E38BD9",
"@X c #ED8CDB",
"#X c #F285DD",
"$X c #F18CDE",
"%X c #ED92DC",
"&X c #E598DB",
"*X c #F192DF",
"=X c #DBA9D3",
"-X c #E5A7DC",
";X c #E3B4DC",
":X c #EE8CE2",
">X c #F484E1",
",X c #F48BE1",
"<X c #F28EE8",
"1X c #EC99E2",
"2X c #F495E2",
"3X c #F699E5",
"4X c #F699E6",
"5X c #F898E6",
"6X c #ECA3E3",
"7X c #EAAAE4",
"8X c #F3A7E7",
"9X c #EAB3E3",
"0X c #EBBBE5",
"qX c #F2B4E9",
"wX c #F5BCEE",
"eX c #ECC5E7",
"rX c #EBCAE6",
"tX c #F2C2EB",
"yX c #F2CCEE",
"uX c #ECD6EA",
"iX c #F1D5ED",
"pX c #F4D8F1",
"aX c #F1E1EE",
"sX c #F5E5F3",
"dX c #F6EBF5",
"fX c #F9EBF7",
"gX c #F8F0F7",
"hX c #FAF5F9",
"jX c #FCFCFC",
/* pixels */
"2X.Xz 4 8 2.e.Y b 2X2Xb.s 4 ) $X5X#Xu.e.0 3 3 3 7 1.<.3 >.0.,.j.h.G.p.:.- > .X2XX.6 4 Y q.q.4 m.5X@XQ 1 V I.*X*XQ.q.2., 4 1 ",
"2X$Xv 3 j 4.1.8 v X.Y.>.8 1 9 P.T.c.$.Y 9 P w f.[ ) 3 ; H u.U s , &.~.9.6 p .X3XS.< s S i.P s ' +.W.P 6 ; 3.!.I._ >.P 0 Y 9 ",
" .G.( W '..XE & 4 3 ( a.2.3 Y a.u.V : 6 9 :.J.qXiX} 6 ; G S.G 6 z Q <Xr.6 j k N.4.I X.|.I.y ; 3 V r.q.Y 4 2.a.5.: s 4 0 6.E.",
"J 1.u.A.*X5X+.s 5 5 P u.,.4 , 6.J.N.z 3 6 :.P.rXdXm.6 6 ..2X XA  .rXpXV.z 5 3 T q.r. X5X*XF 3 4 4 1.q.P * Z i.J.X.4 4 0 u.E.",
"S.6.6.D |.oXF , 3 n.6Xb.6 3 , k !.,XW 6 j j G n. Xm & x D.2X:Xl.7XhXjXiXV.#.Q C.u.R ] @XD.p 2 D &X&X^ 3 3 ; X.#X Xj 6 V 7 W ",
"*XS.S 1 ! S 6.,.` eXhX;XF 4 1 k i.J.f...j.' s 6 6 C H J M B.F.L.+XiXsX6Xr.y.,X@X) 6 d W ( 6.T _.dXdX_.j 4 ; ) s.8.h.^ B.d 4 ",
"$Xb.1 3 3 P q.0./ -XiX%XS V l =.0.,.=.oXOX] k W A T 0.,.3 C 1.0.-.d.R.F.w.u.P.@XD 1 4 6 :.e.1.X.tXtXS.j j D 6.2.,.S.@XY.c D ",
" .` s l . ; 0 0 , z =.F.1.8.OXD.i.P H &.8.5 k @X,XF.0.,.Z 1 0 Y 5 H #.w 1.,.f.[ v j < . 8 Z 6 2 W C.r.,.G.@XG.1.0 T =.>.=  .",
"r X.|.Q + * # s z 4 8 ,.q.u.#X.Xl 3 6 9.0.r.N.3X3XS.I 4 2 - o 0 w @.7 - 1 7 s a B.B.p O - = s V 4 H 0.0.L.2Xv.3 1 H w.0.7. X",
"A oX5XD.z 4 j D.|.l * 3.u./ S.=.; 6 G ^.u.,.m  XD.l 3 z ' } / 0.e.w Q u > 3 6 } 2X2X..5 4 W .Xh.: 6 i.,.g.A.A , 6 %.^.0.P  .",
"s |.2Xh., 1 j S.$Xv { oXD.F J 2.,.q V.7X+X7 j h W <.0.8.,X3XS.,.Y C.$XoX! 6 ; M $X$Xx , 4 W $XD.g B.@Xf.F U 0.Y ~ 1X6Xk.1 x ",
" .g.i.7.@ 3 1.i...u n.2X*Xf / w.~.^.yXjXiXn.G 5 D Q.P.5.T..X] 6 5 D @X3XB.M [ v.8.L.A o P 1.G.n f @X3Xn.a 6.p.~.#XfXjX;X^ 9 ",
"qXW.q.:.w :.q.1.0 s D I.D.O..XW.;.n.pXjXuXn.P d b.5X$XA K >.- 4 6 s v.!.g.-XpX3Xi.2.U P 1.q.@.4 z ..I.n.n.!.H.*.=XhXjX=X*.q ",
"rXo.P 8 6 Z 6.Z 6 6 3 @.( *X5X X6 w +XtX-X&.% = +.5XoXF 1.0.H - A : z u.P.qXgX=XW P 4 8 Y 3.6 4 1 j >.S.5X2X..4 %.9XqX Xq . ",
"S.: : 4 6 < S.v.] 1 0 ,.J. XOXU.K 6 E ).a.9.3 . g [ '.D i.0.0 = m.B.A.0.1.z. X! & ; 6 1 v D.X.A 4 Y r.U. X!.l.8 4 z./.p.#.; ",
"0.<.c.X.F ' *X5XX.= Z 1.@.S 8.2.#.: n (.J.T V 4 y g oX*XX.8 4 } 2X5XI.U 0 7 :.1.4.v.h.v B.2X*Xv ; Y 1.P _ u.9.G $ N.P.y.8 6 ",
"u.P.*X5X' r D.*XE.K 4 %.*.8 1.q.1...@X5X+.4 4 4 & g 2X2Xb.s 4 z  X@Xc - 4 8 :.u.!.2X@Xu b @X$XZ.8 7 l.A U 0.q.&.N.*X$Xv 4 3 ",
"Y ) oX*X] s < ' u.q.5.-XwXJ #.i.8 s X..Xm.r @ , 1 D { T./ j 4 s s ) $ 3 5 6 Z $.X.2X Xx 3 i C.q.0.l.yX+X0 5.1., Q b.oX[ @ * ",
"% : A.S.z 4 j W ,.1.U M.{.m M Y.j 3 j Q N n.` ( 1.Y H u.1.3.Q N.6.1.R Q E E   & c U.X.4 4 D T 2.@.L }.d.x +.j.> 4 A M +.{ ' ",
"1 5 @.1.4 D S. X..j V >.G r :X,X! 4 4 > D.3Xj.T :.1.0 0.q.L.8XrX3X9.4.@X@XN.< 3 0 1.Y s ) .Xv.^ , #.5.: [ 2XD.A 5 3 v %X2XD ",
"7 @.1.0.P F 2X*XF @ 0 q.1.W oX*Xm.h - $ |.*X..c.k.#.z 9 >.U.8XrX&XI I N.XXX.C H :.0.1.6 B.5X.X: - ,.0.Y h.*X@X! , # g 2XXXW ",
"q l.7 U , Q |.OXA 3 0 J.=.= 3.W.! B.o.v &.g.*.0X9Xx  .} F b f.A z 6 1 z ..7 3 %.~ w Z 3 +.oXN.4 6 #.P.j l F.A.} B.[ A 4.g.f.",
"}.0XQ 9 4 4 d d 1 4 V D.$Xj.u.u.Q.5X2XF.0.1., z.h.x @X3XB.K 1.@.3 5 6 Y 0.#._.9X[.G 4 5 < c p 4 4 W $X X7.0.i.#X3X#X6.0.U > ",
"jXjXyXB.H j  .f > ; ! 5X*XC.2.1.C.T.B.=.1.U Z #.1.T  X$X[ T q.,.s X.^ u.p.^.eXjXfX9X%.Z x { = , 1 D.5X@X3.2.5.A.@X .5.,.P 9 ",
"dXjXtX^.r.I.%X%Xv P =.D.O.d 6 8 s ( d & 6 6 H 1.0.H J v i 9 P W Y.2X XT Y z.0XhXfX1Xy.8.XX3XB.V R A. Xn 6 7 j h =.# 1 7 4 Y ",
"[.}.V.#.@.S.2X%X_ 0.q.3.y * 4 6 Y 0.<.W 5 6 ; &.>.9 6 1   & 4 3 N.2X Xz 6 7 m -X{.C.U 5..X3XI.R q.0.W $ 1 5 0 ,.0.&.x 5 4 - ",
"j -.6 1 6 D c.f.0 ,.0.=.o.} 5 7 Y i.U.@XB.D Q Y.h.D 3 3 . - 6 4 f.S.X.5 5 5 - %.H 6 ; A E Y.J P 2.1.} O.A 5 w 1.J.OX@XX.v } ",
"@.q 5 5 Y 1.<.V 3 6 P ^ tX0Xh.# * I |.5X%Xe O.3X*Xk 8 H 5 >  .p I 0.r.K J U @.L 8 6 8 1.1.T 5 4 8 P {.pX&Xx o 9 ! *X5X+.e @X",
"1.;.^ C.u.e.9.K V 0 1.y.0XsX'.& & : v.$X{ i f.N.|.f P 0.0.U.*X|.R ,.J.I.H.0.w.1...) J.q.q.>.A V Y 0.E.sXrXm & # v  XXXb k S.",
">.b.2X$X7.Y 7. XY.5.0.0.T.O.x 5 3 6 >.F.< ; #.x X c ( 1.1.!.5XD.3 3 D @X#Xi.1.( oX2X.X@.@.A.oXc.u.q.r.XXn z 6 > P 6.=.O Z G ",
"f.} @X.XD : b.2X$X3.:.>.<.9.w 3 3 9 0.0.0 7 H.h n  X|.g.s c b.F 3 4 s D.oXW X.! b.$XN.3 d @X5XU.Y 1.@.9.>.8 1 1 Y e.1.1 &.-.",
" X7.J.T 6 6 W U.Z.A 8 8 :.e.7.D v & U Y _ B.7X`.].2X3X..3 > T Z 4 4 U r.A.v.oXI.8.y.j 6 V f.K.*.5 9 0 9.p.W ! p , ,.L k.&X&X",
"_ i.2.0 4 3 0 q.@.8 4 6 0 1...@X X: 7 G d.pXhXrX}.:XY.! 9 Y 0.1.4 A y.u.>.) h.7.u.:.6 4 4 :.2.P 4 3 6 Y >.b.*X] & P z }.jXhX",
"j I 2.Y 2 * P u.,.6 1 o . 8 V OXOXz 7 q d.pXjXeXn x k 3 , 0 0.1.N.0XwXT.U 5 4 A >.<.0 * 1 ,.u.Y 4 * . * 8 ! *XN.5 9 G }.fXhX",
"6 9 Y v Q B & U U 8 U 3 1 6 5 A &.H V j J ^.wXH.7 3 3 B. .D 0 0 v.sXdXXX; 3 5 7 P H F ' a 8 U H Z Z 1 1 3 V W ( 9 V j -.3X8X",
"6 1.6.XXsXeX{ 8 9 ,.q.1.E j C 3.9.0.7.@XA.y.).>.0 5 6 j.2X..4 , n =X8XP.Z & # P 0.5.eXsX[.D 4 U 0.q.R A V K 2.2.1.I..X4././.",
"8 2.u.5XsXyX+.6 6 :.0.:...Y.D.R 0.0.F.3X|.T <.4 # ; E .XoX..6 h F h.y.e.Y & # P e.P.tXsX-XD 4 H 1.0.T j.oX..<.q.9.!.3Xh.#.<.",
"X T Y / &Xm.^ ; ; ..=.s v  XB.l.7.H } .X} & 3 - 3 Y =.g ' O x ^ .X|.&.Y U 5 O > R U c.}.N.V & l f._ $ b.D.N.C.5.h Y.Y.k - 5 ",
"h.) 3 6 ~ @.2.T X.$X%Xc j 6 D  X3XY.G.6.T 1 5 4 P q.0.8 Z Y _ |.2XOXZ 5 6 A } b.A ; V R 1.,.W B.2XB.p z 3 ] *X$XD.y.<.6 5 5 ",
"3X.Xx 3 8 0.q.Y b 2X2Xj.> 1 ) $X2X#Xu.0.0 3 4 s 6 1.:.4 :.q.:...] G.p.,.- : .X2Xj.4 1 U q.q.j n.5X#XD 1 V A.*X3XQ.0.1.5 5 5 ",
"%X@Xv s V C.R 4 l ' S.<.H 1 0 J.U...I P 8 Y U c._.) < - 9 u.U 3 1 #./.1.6 h '.3XN.p x A F.0 4 M } F.Y 9 ; >.Q.A.^ Y 0 0 Y P ",
"' 8.>.)  X*X! = 5 1 Y 0.2.5 Y u.u.V : 4 8 :.P.tXpXd.5 4 W D.D z A  .3X<.6 5 p j.1.R h.oX.Xs ; 3 6 9.q.Y 3 1.u.5.= 3 6 0 u.#X",
"W 1.q.I.2X3X .3 6 z T u.:.4 - <.L.Y.A 4 4 :.F.eXsXv.6 3 X.*X.XG d.iXdX+XJ 5 h #.0.y..X3X*Xc 4 j z 6.u.P ; V i.K.v.6 3 8 9.I.",
"Y.8.5.z B.|.Q 4 s {.0X'.4 4 2 a Q.,X! 4 C s 9 X.b.D * D D.2X@XH.9XjXjXiXR.%...A.u.U F  XB.s 4 v -X9XD 2 4 - ..!.T.z j A 3 A ",
"2Xb.z 4 D H u.1. .rXjX;XQ 6 1 A i.i.C.v.N. .s 4 4 V Y P g N.8.s.(.eXuX1Xr.y.,X@X! 6 j A $.u.R ].dXdX].l 6 , _ i.8.j.X. Xn 6 ",
"#Xv.3 4 2 0 q.1.K ].0XoXA V D 4.0.>.&..X#XM d ) ! &.0.,.6 V ,.q.#.! H.5.e.0.G.@XD 6 1 3 :.0.>.] 9X9XC.V V ' 6.0.:.A.oXS.a E ",
"` M d x   * 6 8 ; 7 &.r.0.y.$X.X8.H 0 R 6.8 M *X*XJ.0.@.0 ; 8 P 2 L #.q <.@.} N v x >   6 6 6 1 A 4.u.1.Q.*XU.5.9 P 5.,.p +.",
"r b.oX] # , * d A j 6 ,.e.u.!. Xp 4 7 r.q.r.v.2X2Xv.V 3 1 - . Z @.L 5 O ; 6 3 k  X Xd & ; : z A 4 0 0.0.J.#X{ , 6 G p.q.4.'.",
"A oX5X|.C 3 z  X.Xs : 7.u.~ j.&.6 5 G ^.r.@.m B.m.z 8 J +.b.C.q.0.U  .b s 5 5 f.2X2XX.6 4 W @Xj.: z J.R ..g.I 3 6 ;.^.9.H } ",
"s D.,X..* 4 C A.@XM O.$X XF I 2.9.w +XwX1X7 5 1 K r.0.8.*X*XS.@.P C.$X$X} 5 - M $X#Xj - 6 I @XB.g  X$Xj.D R q.@.&.7X0Xh.1 z ",
"n.C.u.6.- 4 1.i.) r +.2X%Xu ) q.~.(.pXjXaX].#.5 D !.Q.&.S.I.F 4 3 v $X2Xb.' `.b.5.i.P @ U u.F.d g oX5X+.i 8.p.~.1XhXhXeXz.L ",
"wX!.u.Y Z ,.q.,.8 j x A.b.m.$X!.*.d.yXhXuX| z l Y.4XoXE I ,.; 3 3 < ..U.A.;XsX8XL.2.0 U 0.0.Y 4 j ! A.m.'.#XU.~ ].dXhX=XJ 6 ",
";XB 8 8 4 8 7.V j 5 1 $.=.*X2X X6 H B.qX@X7.@ X O.2X Xc 1.q.P & ! y A u.s.qXsX[.x 8 4 4 I &.j j 1 8 ,.S.3X2X..6 #.-X8XE.H . ",
"A.p p 3 j s D.B.] 1 w 1.J.S.Q.G.K 6 x (.a.1.6 @ c n m...J.1.Z t D.oXI.2.1.) l.) : 3 j s D  Xb.l 4 $.r.G.D.Q.C.V , f./.u.#., ",
"0.6.S.S.F F 2X5Xb.: 8 ,.Y Z 8.0.$.> ` >XG.U 6 4 & B *X3XX.4 4 ] *X5XS.Z 6 8 :.0.7.D.N.d m.2X2XM ; P ,.q ( u.0.Z r B.Q.7.8 6 ",
"u.K.*X3X .e v.@XK.R 8 f.z.C 1.u.1.f.@X2XO.3 4 1 - g *X2XN.s 4 V D.oXf * 3 8 :.i.#X3X@Xa g  X#XF.Z Z V.W P 0.0.#.B.2X*Xl 4 1 ",
"Z E  X*XQ 4 > D u.q.-.7XtXJ #.y.4 p ..D.n.i + 4 6 A ' S.T j 3 j s I = 1 5 6 6 U ] 2X Xl 5 > =.0.9.l.yX&X9 4.3.- D h. X{ X > ",
"& = C.C.l 1 A ) >.1.H h.M.m | T.l 4 4 D B D. .#.2.:.H 0.9.6.X.D.i.2.&.X.^ ! . * v F.) 5 5 ! I 1.@.J V.Q M m.c.< 4 z v n.n.' ",
"6 8 :.2.8 Q Y.oX} s 8 1.H t oX2X} 4 3 : |.5Xh.T >.1.0 1.0.L.qXiX8Xr.&.$X$XD.3 3 0 1.@.h h.@Xm.! ; @.r.- ' 2X.XA 4 , k 2X,XD ",
"8 @.2.2.Z D 3X2XD @ P q.1.E  X2Xb.k - e D.@X..V.N.U A 6 R I.6X;XXXG S h.|.] z L @.0.,.j N.3X X: - <.a.U h.$XoX! < $ b @X XW ",
"G x.5 P , D m.D.V 4 V F.g.t 5.G... XB.D $.;.%.0X9Xk v.N.F f %.x 5 4 1 9 ) 8 3 k.Q q 7 3  .'.h.5 6 Y Q.l z i.C.h. XX.A 3.*.f.",
";XrXd.V 4 4 d p , 6 A T.,XA.0.u.P.2X2XK.0.1.1 ^ *.E :X3X|.( 0.:.3 h 7 :.0.>.[.eX-X~ 5 5 1 k = 4 6 ^ @XoX8.q.i.>X5X$Xu.q.U > ",
"jXjXpXR.T A +.b < ; ] 2X2Xf.1.>.f.I.v.W ,.P H >.9.K B..XM U 0.,.l v.f.y.p.(.tXjXhX0X;.K D n.i 4 3 Y.3XoX&.,.#.j. X' >.@.w w ",
"fXjXwXH.6.T.2X*Xv Y 4.S.{ p 3 7 < R d O 4 3 0 0.0.H A k u 8 Z K .X2X XK P ^ 9XjXfX3Xt.y.oX2XB.j $.l.'.g 4 4 j j &.+ ; 6 5 U "
};
