/* XPM */
static char *sky[] = {
/* columns rows colors chars-per-pixel */
"128 128 74 1 ",
"  c #3D71D2",
". c #4676CF",
"X c #4877CE",
"o c #4778CF",
"O c #4B7ACF",
"+ c #527ECE",
"@ c #4275D3",
"# c #4877D0",
"$ c #4678D4",
"% c #4B7BD4",
"& c #517FD3",
"* c #5680CE",
"= c #5A84CF",
"- c #4F80D7",
"; c #5482D5",
": c #5A85D5",
"> c #5E88D6",
", c #5584D8",
"< c #5A86D9",
"1 c #5D89DA",
"2 c #6087D1",
"3 c #638BD5",
"4 c #698FD5",
"5 c #638DDA",
"6 c #688FD9",
"7 c #6C92D6",
"8 c #6790DC",
"9 c #6B93DC",
"0 c #7295D6",
"q c #7598D7",
"w c #799AD7",
"e c #7196DB",
"r c #7499DD",
"t c #7A9DDD",
"y c #7EA0DE",
"u c #6D96E0",
"i c #7097E0",
"p c #749BE1",
"a c #7A9EE2",
"s c #7DA1E3",
"d c #7FA4E8",
"f c #83A3DE",
"g c #89A7DF",
"h c #8AA8DE",
"j c #83A5E4",
"k c #86A8E6",
"l c #8BABE4",
"z c #82A6E8",
"x c #86A9E9",
"c c #8BADEA",
"v c #90AEE5",
"b c #90AFE8",
"n c #8EB0ED",
"m c #93B1E6",
"M c #93B3EC",
"N c #99B6EC",
"B c #9CB9ED",
"V c #8FB2F0",
"C c #94B4F1",
"Z c #98B7F1",
"A c #9CBBF3",
"S c #A1BCEF",
"D c #A1BEF3",
"F c #A0BFF8",
"G c #A4C1F6",
"H c #A8C4F5",
"J c #AEC8F7",
"K c #A4C2F9",
"L c #AAC6FA",
"P c #ABC8FD",
"I c #B3CDFD",
"U c #B5D0FF",
"Y c #B9D3FF",
"T c #C1D9FF",
/* pixels */
"LAxau8%                   $$-- $                                           $$%%%#@@@@%#&$@@  #@@ @  @##&;%&%%$@ @@    $$;8spsxZA",
"AVau1,%                    $$- @                                           @$&%%%%%$@@..&@    @  @  @#&&%%;%@ @@@@   @o%-,8<xxVC",
"Vxau5-$$                   $$$                                             $$$%%$%&$@@@@.        @  $$%&%%;%@@@@@ @    @;,38sdcV",
"cdpu5%$                  $ $ @                                             @$$$$$$$%@@ @@@       @@.$$%&%%;%@@      .  $,,18uudc",
"dduu1$   $$             @$$                                                $@$$ $%$#%$@  .@      @@#@#@%%%%@#@    @  ..@,118uupd",
"du11,-$$$               @$                                        $         @ @@$$%#$$  @@#       @$#$$$,%%%@     @$  @%<5158uas",
"duu1,%$-                @                                          @        @ $ $%$$%@ @@$$@  @@@@##%%#@$%%%     @%O. @%<<,15upd",
"pu81,%$@                @                                         $       $@$$$$@$$@@@@$##@@ @@@@@#%%$$$%$%$ @   %&&%.#%:;,<1uup",
"u8,-,$                                                             @@@@@@ %%$%%$$@  @  $$$@@@ $@ @#%$@$@@@$$    @%33>&%&>;>;;5uu",
"uu1--$$$$                                                             @$%%%%$%$$$  @@$%$$#$%  $ @#%%$$%&@@$     %<596;&%:<;,<5uu",
"881$$$ @ $$                 $                                       @$&&%%&&%$%$   @$%%$$$$$$$$ @@$%%%$&%@@     ,<199&%&;;;<<<8u",
"8uu-$$$@$$                                                       @@ %%&&&&11&%%$$   $$%  @$$$@@ @@@@%&&%%%%     ;;386<%;:,;>1<51",
",18--$@ $-                                                          %%&&&&&81&%$@@  $%%$$@$%$$$ @@@$%&&,&%@ @@ #%&,115;;,&,<1<<1",
"--,--- @$$$$                                                       @%&518uizd11%%%@@%&%%@$%$$$ @ @@$%&-,%-%%%#%&;<%%&%-%,<,1<111",
"$%,-%$$@$$$-$$                           @                       @@&15&5ipxcd81&%%$$%%%%$@@ @@   @@%%$%,5118;#%<;<3<%@%&&<,<,11$",
",<1,,%@@$@ $$                                                   @$@&&555ijxzddp1-%%$%%%%%%$       @%&&%<uu9r3<;;;155,    ,%%-,$%",
",,1,,,$$                                   @  $         $  $$$$ @%%%1118paazaap3&%%$&%%;,<$      @@$%%<599re66&&>993;@    @ $&,1",
"1-111$$                                   @$@           @  $$$  @$%,%11855e69e6u5,;&;<<,1<%     @ @@%;18rrtte3$&;9u5;;%#    $-,<",
"--,,-$ $                                 $@$             @$ $@$  @$%&111515569ei6,<<<<&<1,%       @%-,39rrff02:%;99u1,;@    $-,,",
"-$$-$$               $$$                 $ @             @        @$$&1,51,15i68pr3<<111<,%     @$%&,189erjte5&&<9r8<<,      $%%",
"$,-$-$             $ $$ $                  @$                 $$  @@@%1,11,,<8u8ep985<15<,-$   @$%,,<859aajfe33:;9r9,,,@  @@ @$%",
"-$,,-$$  $        $$$$$-$$ $                                $$$$@@@$$$%&&<&&&18ueie95<6<5<,$    $,,,1589abvlft52>9r8<%%,,,,--$%%",
"$$-,,$             $$$$$--$                $$               $%$$@@@@$%&%%&&%&&u,55198<,,,,%$$@ @@,,55969abMvkj61>5681%;155<1,%%%",
"@ $-,                $-$              $  @ $               @%%$$ @ @&,%,%&%%%&&$,<115<$ @@&  $$$%%,u9996rvMMMba5><;<<%,,8,,,,,-$",
"   $$@            @$$%%-$             $@                   $$$  @$$$&&$&&$%$$$$@$-<<<,$ %   @%%%&%:9re4akbMMMbi91,,<uuu1,,111,- ",
"     $          @ @$$$-$$$            $$                   $$ @$$$$$$$$@$@$$ @@  %-<<-%     @#%&&&;7eajlllSCcciu1<11881u1,,11,  ",
"                 $$$$%$$$$ $ $                             $@ $$%%$@@@@@@$$@   %% %$%%%$$$%  @%;&336tllvvvbbcji91<1811-,1,,11   ",
"$$  $   $ @      $$$$%$@$$---$$$                        @ @$ @@ &%@@@@@ @%$  @$,%, -,,,,,,%-%%oo2646qlvvNSDSba9iu81u1%%@$$,,    ",
"$-$$-$ $%-$$$     $$$$$@$$$--$$$ $                      @$@  $,$,%@  @  @@    ,,<<,,<u<<11><&%%o*444efvlNNNDVVduu1181-   $%   - ",
"11$$-$$$$-$$  $     @$$--,,,$-$ $                            $-,%@           @,,;<u1uuuddcr8>#o;37444fvbMSSDVVxu<<<,,$$  $@  %uu",
"u11,,$-@ -$$        $-%%,-,$--$                              $,%$$           @%-,<885upsxcj03o@o:4444fmMbMDZVVd1u,--$      @ -ud",
"uu,1,-$@ $$$ $      $$%%,$$-$$$-                            $$%$@$          @@,%-<<uuuu9pjr73%%%23444gvMNCbcVCu1u1%$$     @ -1ud",
"uu-,-,-$  $ $$      $$---- $- -,$$    @@@        @@         @$%$             @-%%<<58u88ysr732:==::2qhSNNkMkkr9881%$       $,ddp",
"<--$$$%,         $$     $ $  $-$$     $ $    $  @@$$          $              $%%-<da9u95ryqq7>3:;**:4hvBAlxstai785<%$     $1uuuu",
"1-$$$ $$$              -$     -$     @$$  $$ $ $$%$$@        $               $%,,uccsi9rstw722>+=oO=7lMmNjjzrssru88,$    -<588,1",
",-$$$   $        $   $ $$            $----$$$$$-%%%$$@                      @@%<<annxzsrsr032=;*% #;7lclMxkaiazsau8<$ %-,,55181,",
"-$$$                    $  $       $-------$$$,1,%%%$@$%$                    %%<ucNMNxjtyw7:**Oo @%>0jkkcNza9pddzs5%  -18u,u81,,",
",$$$$  @    $$$                $ $$,,,111,-$--1uu,&%$$$%@              @  @%%16ipcnnljtsfr3=:O$% @+6tjjkMcjr8zddpdu1%$<pud1uu1,,",
"-$$$$$  $   $$             $      -,11uuu8-$$,1uu8111%%%@           $ @@   $18rasyjtlsrjww32:*%+o $4tjajzks51addia<uu,updu1118,,",
",$$$$$$ $   $$         $         -,11u11181--111u1<1,&,%$            $ @@ @&59ttrr9rtrefff73=:OO$ #4tstapiu1<9ddu81up5upduu,11u1",
",,%$$$$$ $  $@         $$$      @$%,1811u1<,-<uu811,8,&,$ @            @@$ $<9qe9q7rfyqyhh72===%o$@oest9ieu5$,5pu<<acxppduu,<181",
"u81,%$$$-$$- @      $$$$$ @$$$$  %%11118u1u1-11uu81881,,-$$   @       @$@$%%3477r7rykkfhvhf2=3;%%o.%39669888-@,1%,udCndsdduuuup8",
"u81,%,%$$-$-@$ @   $$$$ $$ $$$$@ @%,,115u81<<888818181,<,$$$@@$@      @%$@%>9770qr7yfmlmmhwqq7;Oo%%.;3<38858-@$$$%1nCMcxVdddppVd",
"uuu8,,,%---$$@$ @   @$ $$$$$%%$$@$%%,111<18<<11,1uu818<%%@%%$$$@    @$@%;%-97000yq77ylmghhwyft3*%@  @%&<581<&@@@%1inZAnddddddddd",
"ddu8u,%-,,,$$$$$$    @@@$%$$%$$$$$%--,,,,8111,,,18u8u11%%@$$$-%$$   @$$$%;>377007447wfvfygyffl93&.    %%<3<%    $5cdscxsdxddddpV",
"ddu11,-%,,,,,$-$      @$%%$$%%%%%$%%%%%1111,1,1,,u<11u8%%$%$$%%%%    @%%%;437747=;<4rrffyfgyfft7%@@     $;$   @  <5uu9pxdVVVddAV",
"du1,1%$$,,111,-$     @$$$$$$%$%%$-%$&&%&,,1185uu1%%,<uu,%$$@ @%%%@@  @$$%,3743:=O*O3eqqytglgfvf3;%.      @@ %1<,,$%%uupxxcVCddFV",
"du8-,$$$-,,181,-    @@$$$@@$%$,%%%$$%%%%,,ududddu,,%<11,,,%$@ ,%$$$$@ $-,>>>:==;O*;,7q99efyyfhr9;&         188968-,11uusdVxFVVFA",
"u11,$ %1,,,,u11$     $$,%$@$%<,$%%$$$,%-35upazjp5<,;1<<,,,&%$@,%%$$$%@@%;:>:;%OO++&;4ee7errtfys3,;%        189rr8<889uusdxcKCZAV",
"8,%-@ $,%$%%1,$$     @@$$$ @%,%$$$$$%%%159irpdpi56855511<<<%$%,%%%-$@..%O+o%o#%O&&O+3496rtrqwte:>%%$       589rr811ue91sMMMLZCCp",
"   @@ %%%,-%%%$$ @ @  $,%$@ $$$$$%$%%%%,<58ia9riipiipi881u1,%%%%%$%%%. .%.#.##$o++O%;34etyfe9r>%@$@      $#69798998uu83kcNCKAccu",
"  $  %-,,,,-%$$$$$@  @%$$$     @$$%$$%,<358i998rjxczxzuuiuu,,,&%$%$%.@@@.#@ooX%oOo.#X:7rrrwr94%@$@    @ %&<99815899ue87xmMCAx1u ",
" %1-1,,,-,1,-$$$@$ $  $$$      @$$,,,,<151566888acCMcxpxcaai1,&%%$O#%+.@ ###O% ...oo.o:779ere:@$@@@    @$%<7533<599ri83kcMxau$  ",
" ,uuu18,u11--$$  @  @@$,$      @$$%,<<1153558985rszccdsNcccp93;%%%&++O.@   X%X@ @.o.o.o=<339>%@$@$$ $$ $%<>363>;<1<65<8yxNu<$$  ",
"1updpu<-,,,-%%$@  $$$%,$$@ @  @@$$%,,,85<35589838uadxcnADACja9>&:>:+&O%#@ @...   o.@o+%;<;%;%#@@$@$$$@ #%:<334>;%%%%;,>rjp<$   @",
"1dudduu,,,%%%$@@   $-1,%$$ @$@@@$$$&&,5511536851159zMCAKDAZcar53222:;X.@       @   #O%**;%%#%$#$$$$$%%@#%;>>>>,%@  %;::;81<     ",
"1ppdxau11,,%%$$@  $$$1,,%$$$%@  @$$&%&551211351<15upAGIHNcckr9>>4==3:o.            .$O*-;-%$@$@$%%$ @$%@%::::;;.   %&&1,%$ @@ @@",
"dVpdxp1u,,---$$$$ $$%811,$%%%@@@$$&&&&,5&&&&<<<186ixNIYHAmlyr9>3>3::O$              @*;*;<,$    @ @    $%%;;%@  @ @%;53,-$$;,,85",
"xAVaxu15<<--$$@$ $$$%,,u<,%%$@$$%$$$%&&&&55&&&<59pxZHYUIBjjjr743>33*O$              @o;;%<;@@ $$$$@@@  @@       .@#%;>,&<%,<,uad",
"FLAcdp<<5,5$$$$$$$@ $%,1,%%%$$$$%$$$%&&&>33:;;19rsnAJYYGmffq7e95343;;o                o%;<;$@%;;%% @#             @%&<,,;1;-<pas",
"YUAcap<<u81-$$%$$$@ @$,,<,%%$%$$$$@$$%&:>3>1>:6rpsxNHIJmmlw77707073:;o       @@ .@   @$%;8,;$-,,%$  @@          @ @@%,<,%,,,1uzA",
"DAcai11<,<u<,-,%$ @@$%%,,%%%$%%$$@@$&&&5>>:31134rrzlBSBllht477rtt94+O@    @ o.%.    o&%&;e1,;11,%% #@$   . @  @@@  @$,,55u,,upcK",
"Zcdpu15,,,15---$$@  @$$,%,%%%%%%@$@@&&51::1>>25:5tjkblNgtfw77e0wt94;o     .$%$%%    %%%,17<%,1;$#@ #%%@$.@ @      @ @%,155,1iacZ",
"Czp9u<<--<<5,%%%@@@@$$%%%,%@$%%$@@@$&&12>2>:;>;;3rte79jy347q0ttjt7:%.     %Oo+3;,  @#%-;,5;->>%$$ .$;;%#@@%.     .@@%$,-%-5idcAA",
"dduu88,,,%,,,%%%$$$ @$%$$@$@#%%@@$##&;>>3:>::;;:4er7:3r03243ettfe4%%     #%OO343&%#@$%,&&%@%,5%$$@&&38&%o$%%    @$@@@@$$$%<1edVC",
"uu,8,,%%$$$%%,,,%%$@@   $@@ $%%@@#$%&;;3>:>:*&O*2e74=;O32:2>4eee3;@     @ o%%:&&%&%$$%@%$@@$%%#@@$&,5551<%#%. @  $$#$$$$$%%,9szd",
"1,,,-%%,$@$$%,,%$$$@ @ $@@ @@$##$%X%%;::>::=+%+&;443;+O++&:22e55>@     $$@@%&+&&&<,% @@@@ @$$@$$$%:135693;%3# @@ $%%%@@$%$$<5uuu",
"<,,,$%%$$@@%$$$$$$$          @@@$$%&%&;;:;:=;*%**:+;&oo%2&&:5:551#     $$@#&<:;;:<&%    @@  @@%&&&&359699>;>$$    $$%$  %$%><,51",
",%,$$$%@@@$$%%$$@$      @      ##@%;;O;;=;=:*&+OO&%#@.$%;&&::&&&;%     $.%&;::>:><&%  $$@@    &,&&&<599676>;%%@@@$@$@ @@$%%,$$%,",
"%%%%$ $$@$$$$%$$@$    @@@@      @#o;;&;*;=:*;*O%O+%#@@#%;+%%%&$&%%   @@$#&:::78>:<&%@@@$$@   $&3<:rrr59999,;;%@$ @@@@$ $$@  @@@%",
"%%%$$   $$$$$$$$@      @@        $O;;*:2*;:*OOo%o$#$.#$$#%#@@$$@%   @ @$$;>;3641,,&%$@$@ @   $&536rrae9e781,<%$$$@@@@@@ @@  @ $%",
"%%$@ $$$$$$  $$@ @     @@    .@@.@$O&*3=;:*;%$@@@ @#%% @$#@ @@$@@   #@@#&;<<1531<&,%%$@@ @  @%1838ejkap9881<%%$$$@$@@@        @$",
"$$$   $@@@$@ $           @   %O%  @%O%*;;;*o#@$  @@@@$ $$@ @       $%%#$&;><>3811,;;&%@     @%1788ajyzjp95>;%%%%$$$@@          @",
"@ $    @ @$@$           @  %%%&%$$  @@%+*&%%@@@ @ @#$@ $$        @ $o$%;>799>31<11<<2;@ @  $#>4rarrzxcja951<%%%$$#$#@          @",
"  $      @$$            . %&%O;%o#     .+%%$     #@@@@  @        @ $$$;465sza8558935<1$ %@@ ;,7et0ezxxsu985<%$%$%%#%@  @ @      ",
"                          %%O;*$%o      @&%@     $@ #@@      @    @@@.;497zdzu56rr8883,@@@  .%09rrejka99889<%##%#%%%#@          ",
"           %@           @@%%;#%%%o        #      $@%%%#@ %@          $:34rtkzs8rpar79>>%   @.>47er9ys985863,%%%%&&&&&$@         ",
"         @$$@@@@     $$@ %%%$%%%$$               #%;%%%%@$          .%:39rsslktstpr994<%   @<7>77eejsrr76<;;%%o%&&:>;%@         ",
"        @@$&$$@      @ @ $%%%%%#.                $;<3<;;$$        @$;o>497esclzrt99983,%    #43e99ryar9931>;%%.%&&&:;$          ",
"         @%$$%$$         #%o%%$#@@             @ %;<1><%@@    @   @$%%<<4erjjsrtt93<13<@    X;;w4ersjrr951<;;%@%%%51;@          ",
"          %$$$,$@@     @ $$%%%$@@               $,,11,%%@    @@@   @;O,>48ryrrrr988>>>>@    @%7449rsktr9652&&&&%X&><1%@      @  ",
"         $$%---%%$     $%&%%%$@@ @               -,111<-$  $$@@    @$;:;:478e9ee8e98>::% @   .32>4rrsrrr73>:&&%$#&;<<<$@        ",
"       @$@$%-$,%%$     %%%%&%$$@@               $%,,,,1,%$@%%$@ @   @%O;>::34e774798>:-*X#@  %;::39tjtrr6623;&$@#&:<<,%%  @@    ",
"        $$,%,,%,&$@    $%&&,%%@ @               $%,,%-,-,%%%%$@@@     %;;;;3>488eye73:*-%. @%&*;&<9tjjr77433;+$$ %;<,&-$   @    ",
"      @$$%,,%,-$%%$   .%%&;;+#$@@                %,-$%%,-,,;,%@       $$%;=:3>54rrq7>:==##@O;;;o;37rjjw9966>,&%$ %<<-$%$ @@     ",
"      $$$%%%,,,%%#@   .X+++;%##@@          @ $@ @$%$%%%%,,311<;@@    .%$%%%;<>>89srr7>;*+o#&*+&&O<3etj97763<<,&$$%%,%$@$@@      ",
"  $ $$$%$$,,%,%$@     X+O+&%%.#          @  $$@@$@$%%$%,<1853<&%%@@@@$$  @*;;>13979073;O+%%+*&&%O;<9et73><<;,<%$@$  %   @@      ",
"   $--%%$-,,%%,$     .X%+O*&o% @@           $%$   $$-%18uupr3<;;%%$   @   %;:44><<:77;OoO@O&+%%o%%;:7943&+<:<,%$@  @@@$$@       ",
"$%$%&%@@$@,,$$%$     @$%OO&&%$$@         @@ $%%$@@@&-,59irrf9>>;;;$       #;:47>;:;;;=*o$@  @.#%o%.&%;&%%%,,&&%%@    $@$@       ",
"%%%%<$@@$$%%$$%$     $%$O&&&&%$@          @$$$%%%%@-,19tptakrr>:%%@.      @%%&%%%;;*;*;=*Ooo @   .@.X#@.%@$,%%$@   $$$@$       @",
"%%%%&$ @$$%%%$,$@    @@$##%%%@             $@$%%%%%&<8rpsstxy9;;%%$@       %$$$o%-%*;%==3=:*oo.   @        $ @ @ @ $$@         %",
"%%@$$@@@$,,,,,%%$@@      @%%%@             $%$%$%,;;uaptssskk9<;::%$$.   .@. .@%O%%%*>>270333O$. .                 @$$        @$",
"&%@$@@@@@$&&,,%,&$$  @@  $$&,@            @%-%$%&&11rjjjyssjx948<>%Oo#    ..   @%$%$;3>30w4742;O&O@               @@          $$",
"$%      @$%%%%&,&%$@@$@$%%%&%@            $%-$$,;>;367fatsljpr5397%%##@@       @.. $=4qhhhw002==**o                           $$",
"$   @@  @@$%%%%&$$@$$$%%%%%%%@            @%&,,,;><136rjsylkj79rt3%#@@            o*37qfhfw0422=2:%.   @                       $",
"$$@$ @   @@$$$$%$@$$%%%%--%,%              $%&&,;>>316ettjkjprrr79%@@@            .;47ryff77742743+. @@%@   @                @$$",
"%$@$  @   @@@%@@##%%&&<&<&&%,@              &,,,115&3569rtsstrr933% @            .%*370tfy7777707=+#%&%%@@                    $$",
"$%$@   @   @%@ @@@$%%&&5,&$$@               %&1&&15533&3ersrrrr75;o$@  .         @+;:370wfw70qrq0:%O%&%%&%@                   %%",
"$$     @    @@  @@$@@%@@%@@                 @$&&<1885522699799e<,%%o.            o+;3=7qqttqwytyr3&+*;&&&& @$                @$$",
"$      @    @     @@@@@@@                   @@$%&8182211136>663,;Ooo$            o+*:370twtffyyrq3:;<,;&,,$$                 @@$",
"                                              @$:>1255:::33>53;%O@.@.           #oo;:3737wrrrtr979>;:><;,<,$   $                ",
"                                              $$&:&&2:&::;;;<;%.@  .. .     .%%.@oO+*:>3770eq9rrr97<3<>>5<&  @$-% @@            ",
"                                                #@  #&&::;%&&%@@.   ..      oO@#@.O+*O*:37rrr9r9r7967815u,%  @%,%%@%@@          ",
"                                                   @@$#&;&%%%%@@    .XX.    o.....%OOo+=370rrp997858u9985,$  $%<<,,%@@@@@       ",
"                                                      @#$%%$##$@    . ...   ..oX.oO+*++2770rra5658<>9iu81$   %<1118,-$@@$$      ",
"                                                @      @$#@# @@@     .. @ ..XXO%oo+=*+*277qqrr51,,,-<188< @  -,<888<,% $$       ",
"                                                        @@ @   @     . ....%OX%OOo+++===33ryae5;%-%@$-<-;@@%<<<55uu<%$@ $ @     ",
"                                                               @        X%X+++OO*oX+*==*=39yr96;$@    @%%$%-11<1u8u,&$$    @    ",
"      $@                                    @                   @   .   #oO+*++o%o..+==*>377e95%@      $%-<-<<,;,8,%%$@@        ",
"      %$$@                                  $                  @@    ..o#XO=;&+&o. .+O+::>rr79;%@      $;<99u<<,%&%%%%          ",
"    @@$$$@@$                               $$$$      @            $$##ooXXXO+*+Oo% $o%&;;36983;%@     $%<ucnxir3,%%$$%@         ",
"     $$$$$&%                               %%%                   @@#$.%oXOOoO;o.X...%O&;:<<>6,<%      @;5snACni81,,,,%@         ",
"     $$%%%&%$                               $$$$                 @@@XO+XXX.. . @$# @%%;;<><<><%@  $  $$,8pxNZNnru85<,;#@        ",
"    @$%%%%&%%                               $$%%                 @ .%OO+OO...  .#@ @o%%%:>,;<<%@$    $%<8rixnNzpuu5,;$%%#       ",
"    $$%$%%$%$                               $$$%$      $          @$Xo+++XX     %@@ @$$;<;,%%%@ $@   $;<8rrdxziiiu5,%%&&$@      ",
"    @$$$%%$$$                               $$$$% $   @@@@$       .$OOO++XO.     @   # %$$%%@@   $ $$%<35rrapr98p83,$%&&%       ",
"   $$$$$%%$$@@                                @$$$$    $$@ $@     @$ooooOo. @    @ @     @%$    @$%%%<199i988586551<#$&&#       ",
" @$$ $$$$$$$@$                                @@$%%   $%$$ @      @oOO#o.#          $#         $@%%,<589rrr83851>;<;%%$$ @ @    ",
" $$$$$$$$%$$$$                                 @$$%%#$%&,;-%@     .oOooo            %@@      @$;%,,,>3356r99986<&&,&%%%#        ",
" $$$ $$$$$$$%$$@                               @@$$-;<11<;,-$@     .#@#            @@@@      $$%;;;%>;<<5999988;%&,,1&%#@       ",
"$%%%$@@ @$$$$%@@    @$                        @@@$%,118u>;%%@$   .                  @@$@   $$@%%%&O%;;;:>87898>%%&;,;,%@# $@    ",
"&u&u&% @@@$$$$$     $$@                        @$@$-,88,,%%$ @@                      @@%$@%%-%;*;%%%%;o;;38885;-&%%%;;;%$%%$$@@$",
"dzuu8&$@@  $$@      $@$@                       @ $$-,<,%-%$#$                        @@%$$-;;-;;&&%@%$o%;;;:>>,;&&;&&;;$%&&$%<88",
"zVzpu8%@@  @$@      @@ @                        @ @$&,,$@@  .                        $@ %-;;%;;;;+o%@@#.o;;;<;;;%<;%&%%@<<%<89ip",
"CCVzu1&%@            @                          @@ $%%$@  @                     @ @  $@#%<,-;%*;;%%.@@#@$-O-;;;%$@#%%%-#%<<58pzz",
"FFAzd1&%  @                                        @$$        .                  @ @  %%%%%%%%;;%# $#@.@$%%;;;;%$@ @$$%;<51iccNC",
"LLAzd1&$                 @                    @     @                     @$   @@ @ @#%%$%$%$%;&.@ @@. $O%;,:;;$$@ @@ %<88zcVCAA",
"FLCduu%$             @   @                                    ...          @ #%%$ #@@@%%#%@ .;;$ .   @%;,;;O;;%@@@   @%%<iccDAKA"
};
